<svg xmlns="http://www.w3.org/2000/svg" xmlns:xlink="http://www.w3.org/1999/xlink" contentStyleType="text/css" data-diagram-type="CLASS" height="1223px" preserveAspectRatio="none" style="width:1074px;height:1223px;background:#FFFFFF;" version="1.1" viewBox="0 0 1074 1223" width="1074px" zoomAndPan="magnify"><defs/><g><!--cluster moo_v_db--><g class="cluster" data-entity="moo_v_db" data-source-line="9" data-uid="ent0002" id="cluster_moo_v_db"><rect fill="#FFFFFF" height="1205" rx="2.5" ry="2.5" style="stroke:#000000;stroke-width:1;" width="1056" x="12" y="12"/><text fill="#000000" font-family="Verdana" font-size="14" font-weight="bold" lengthAdjust="spacing" textLength="195.9453" x="442.0273" y="26.9951">Moo-V Database Schema</text></g><!--class collection--><g class="entity" data-entity="collection" data-source-line="13" data-uid="ent0003" id="entity_collection"><rect fill="#FFFFFF" height="88.8594" rx="2.5" ry="2.5" style="stroke:#000000;stroke-width:1;" width="279.8177" x="750" y="853"/><ellipse cx="847.9665" cy="873.1328" fill="#FFA500" rx="9" ry="9" style="stroke:#000000;stroke-width:1;"/><path d="M848.8102,879.8828 L846.3571,879.8828 L846.3571,869.6328 L843.2165,869.6328 L843.2165,867.4922 L851.9508,867.4922 L851.9508,869.6328 L848.8102,869.6328 L848.8102,879.8828 Z " fill="#000000"/><text fill="#000000" font-family="Verdana" font-size="12" font-style="italic" lengthAdjust="spacing" textLength="45.0762" x="881.1208" y="869.1387">&#171;table&#187;</text><text fill="#000000" font-family="Verdana" font-size="14" font-weight="bold" lengthAdjust="spacing" textLength="76.3848" x="865.4665" y="884.9639">collection</text><line style="stroke:#000000;stroke-width:1;" x1="751" x2="1028.8177" y1="893.2656" y2="893.2656"/><path d="M763.4167,900.7292 C761.8067,900.7292 760.5,902.0358 760.5,903.6458 C760.5,903.8325 760.5,904.0192 760.535,904.1942 L757,907.7292 L757,910.0625 L760.5,910.0625 L760.5,907.7292 L762.8333,907.7292 L762.8333,906.5625 L762.8683,906.5275 C763.0433,906.5625 763.23,906.5625 763.4167,906.5625 C765.0267,906.5625 766.3333,905.2558 766.3333,903.6458 C766.3333,902.0358 765.0267,900.7292 763.4167,900.7292 M764,901.8958 C764.6417,901.8958 765.1667,902.4208 765.1667,903.0625 C765.1667,903.7042 764.6417,904.2292 764,904.2292 C763.3583,904.2292 762.8333,903.7042 762.8333,903.0625 C762.8333,902.4208 763.3583,901.8958 764,901.8958" fill="#DAA520"/><text fill="#000000" font-family="Verdana" font-size="14" lengthAdjust="spacing" textLength="4.4502" x="767.3333" y="910.2607">&#160;</text><text fill="#000000" font-family="Verdana" font-size="14" font-weight="bold" lengthAdjust="spacing" textLength="14.8203" x="771.7835" y="910.2607">id</text><text fill="#000000" font-family="Verdana" font-size="14" lengthAdjust="spacing" textLength="58.1328" x="786.6038" y="910.2607">: SERIAL</text><line style="stroke:#000000;stroke-width:1;" x1="751" x2="1028.8177" y1="917.5625" y2="917.5625"/><path d="M761.6667,926.1927 C759.73,926.1927 758.1667,927.756 758.1667,929.6927 C758.1667,931.6294 759.73,933.1927 761.6667,933.1927 C763.6033,933.1927 765.1667,931.6294 765.1667,929.6927 C765.1667,927.756 763.6033,926.1927 761.6667,926.1927" fill="#FFFFFF"/><text fill="#000000" font-family="Verdana" font-size="14" lengthAdjust="spacing" textLength="252.0342" x="771.7835" y="934.5576">name: VARCHAR UNIQUE NOT NULL</text></g><!--class movie--><g class="entity" data-entity="movie" data-source-line="13" data-uid="ent0004" id="entity_movie"><rect fill="#FFFFFF" height="357.6094" rx="2.5" ry="2.5" style="stroke:#000000;stroke-width:1;" width="328.8997" x="331" y="560.5"/><ellipse cx="467.8869" cy="580.6328" fill="#FFA500" rx="9" ry="9" style="stroke:#000000;stroke-width:1;"/><path d="M468.7306,587.3828 L466.2775,587.3828 L466.2775,577.1328 L463.1369,577.1328 L463.1369,574.9922 L471.8713,574.9922 L471.8713,577.1328 L468.7306,577.1328 L468.7306,587.3828 Z " fill="#000000"/><text fill="#000000" font-family="Verdana" font-size="12" font-style="italic" lengthAdjust="spacing" textLength="45.0762" x="486.6618" y="576.6387">&#171;table&#187;</text><text fill="#000000" font-family="Verdana" font-size="14" font-weight="bold" lengthAdjust="spacing" textLength="47.626" x="485.3869" y="592.4639">movie</text><line style="stroke:#000000;stroke-width:1;" x1="332" x2="658.8997" y1="600.7656" y2="600.7656"/><path d="M344.4167,608.2292 C342.8067,608.2292 341.5,609.5358 341.5,611.1458 C341.5,611.3325 341.5,611.5192 341.535,611.6942 L338,615.2292 L338,617.5625 L341.5,617.5625 L341.5,615.2292 L343.8333,615.2292 L343.8333,614.0625 L343.8683,614.0275 C344.0433,614.0625 344.23,614.0625 344.4167,614.0625 C346.0267,614.0625 347.3333,612.7558 347.3333,611.1458 C347.3333,609.5358 346.0267,608.2292 344.4167,608.2292 M345,609.3958 C345.6417,609.3958 346.1667,609.9208 346.1667,610.5625 C346.1667,611.2042 345.6417,611.7292 345,611.7292 C344.3583,611.7292 343.8333,611.2042 343.8333,610.5625 C343.8333,609.9208 344.3583,609.3958 345,609.3958" fill="#DAA520"/><text fill="#000000" font-family="Verdana" font-size="14" lengthAdjust="spacing" textLength="4.4502" x="348.3333" y="617.7607">&#160;</text><text fill="#000000" font-family="Verdana" font-size="14" font-weight="bold" lengthAdjust="spacing" textLength="14.8203" x="352.7835" y="617.7607">id</text><text fill="#000000" font-family="Verdana" font-size="14" lengthAdjust="spacing" textLength="58.1328" x="367.6038" y="617.7607">: SERIAL</text><line style="stroke:#000000;stroke-width:1;" x1="332" x2="658.8997" y1="625.0625" y2="625.0625"/><path d="M342.6667,633.6927 C340.73,633.6927 339.1667,635.256 339.1667,637.1927 C339.1667,639.1294 340.73,640.6927 342.6667,640.6927 C344.6033,640.6927 346.1667,639.1294 346.1667,637.1927 C346.1667,635.256 344.6033,633.6927 342.6667,633.6927" fill="#FFFFFF"/><text fill="#000000" font-family="Verdana" font-size="14" lengthAdjust="spacing" textLength="180.291" x="352.7835" y="642.0576">title: VARCHAR NOT NULL</text><path d="M342.6667,649.9896 C340.73,649.9896 339.1667,651.5529 339.1667,653.4896 C339.1667,655.4263 340.73,656.9896 342.6667,656.9896 C344.6033,656.9896 346.1667,655.4263 346.1667,653.4896 C346.1667,651.5529 344.6033,649.9896 342.6667,649.9896" fill="#FFFFFF"/><text fill="#000000" font-family="Verdana" font-size="14" lengthAdjust="spacing" textLength="229.1406" x="352.7835" y="658.3545">adult: BOOLEAN DEFAULT FALSE</text><path d="M342.6667,666.2865 C340.73,666.2865 339.1667,667.8498 339.1667,669.7865 C339.1667,671.7231 340.73,673.2865 342.6667,673.2865 C344.6033,673.2865 346.1667,671.7231 346.1667,669.7865 C346.1667,667.8498 344.6033,666.2865 342.6667,666.2865" fill="#FFFFFF"/><text fill="#000000" font-family="Verdana" font-size="14" lengthAdjust="spacing" textLength="141.1143" x="352.7835" y="674.6514">overview: VARCHAR</text><path d="M342.6667,682.5833 C340.73,682.5833 339.1667,684.1467 339.1667,686.0833 C339.1667,688.02 340.73,689.5833 342.6667,689.5833 C344.6033,689.5833 346.1667,688.02 346.1667,686.0833 C346.1667,684.1467 344.6033,682.5833 342.6667,682.5833" fill="#FFFFFF"/><text fill="#000000" font-family="Verdana" font-size="14" lengthAdjust="spacing" textLength="181.5283" x="352.7835" y="690.9482">overview_vector: VECTOR</text><path d="M342.6667,698.8802 C340.73,698.8802 339.1667,700.4435 339.1667,702.3802 C339.1667,704.3169 340.73,705.8802 342.6667,705.8802 C344.6033,705.8802 346.1667,704.3169 346.1667,702.3802 C346.1667,700.4435 344.6033,698.8802 342.6667,698.8802" fill="#FFFFFF"/><text fill="#000000" font-family="Verdana" font-size="14" lengthAdjust="spacing" textLength="125.877" x="352.7835" y="707.2451">tagline: VARCHAR</text><path d="M342.6667,715.1771 C340.73,715.1771 339.1667,716.7404 339.1667,718.6771 C339.1667,720.6138 340.73,722.1771 342.6667,722.1771 C344.6033,722.1771 346.1667,720.6138 346.1667,718.6771 C346.1667,716.7404 344.6033,715.1771 342.6667,715.1771" fill="#FFFFFF"/><text fill="#000000" font-family="Verdana" font-size="14" lengthAdjust="spacing" textLength="249.1904" x="352.7835" y="723.542">budget: BIGINT CHECK(budget &gt; 0)</text><path d="M342.6667,731.474 C340.73,731.474 339.1667,733.0373 339.1667,734.974 C339.1667,736.9106 340.73,738.474 342.6667,738.474 C344.6033,738.474 346.1667,736.9106 346.1667,734.974 C346.1667,733.0373 344.6033,731.474 342.6667,731.474" fill="#FFFFFF"/><text fill="#000000" font-family="Verdana" font-size="14" lengthAdjust="spacing" textLength="265.1729" x="352.7835" y="739.8389">revenue: BIGINT CHECK(revenue &gt; 0)</text><path d="M342.6667,747.7708 C340.73,747.7708 339.1667,749.3342 339.1667,751.2708 C339.1667,753.2075 340.73,754.7708 342.6667,754.7708 C344.6033,754.7708 346.1667,753.2075 346.1667,751.2708 C346.1667,749.3342 344.6033,747.7708 342.6667,747.7708" fill="#FFFFFF"/><text fill="#000000" font-family="Verdana" font-size="14" lengthAdjust="spacing" textLength="235.6006" x="352.7835" y="756.1357">runtime: INT CHECK(runtime &gt; 0)</text><path d="M342.6667,764.0677 C340.73,764.0677 339.1667,765.631 339.1667,767.5677 C339.1667,769.5044 340.73,771.0677 342.6667,771.0677 C344.6033,771.0677 346.1667,769.5044 346.1667,767.5677 C346.1667,765.631 344.6033,764.0677 342.6667,764.0677" fill="#FFFFFF"/><text fill="#000000" font-family="Verdana" font-size="14" lengthAdjust="spacing" textLength="136.8486" x="352.7835" y="772.4326">release_date: DATE</text><path d="M342.6667,780.3646 C340.73,780.3646 339.1667,781.9279 339.1667,783.8646 C339.1667,785.8013 340.73,787.3646 342.6667,787.3646 C344.6033,787.3646 346.1667,785.8013 346.1667,783.8646 C346.1667,781.9279 344.6033,780.3646 342.6667,780.3646" fill="#FFFFFF"/><text fill="#000000" font-family="Verdana" font-size="14" lengthAdjust="spacing" textLength="152.3115" x="352.7835" y="788.7295">homepage: VARCHAR</text><path d="M342.6667,796.6615 C340.73,796.6615 339.1667,798.2248 339.1667,800.1615 C339.1667,802.0981 340.73,803.6615 342.6667,803.6615 C344.6033,803.6615 346.1667,802.0981 346.1667,800.1615 C346.1667,798.2248 344.6033,796.6615 342.6667,796.6615" fill="#FFFFFF"/><text fill="#000000" font-family="Verdana" font-size="14" lengthAdjust="spacing" textLength="147.7793" x="352.7835" y="805.0264">poster_url: VARCHAR</text><path d="M342.6667,812.9583 C340.73,812.9583 339.1667,814.5217 339.1667,816.4583 C339.1667,818.395 340.73,819.9583 342.6667,819.9583 C344.6033,819.9583 346.1667,818.395 346.1667,816.4583 C346.1667,814.5217 344.6033,812.9583 342.6667,812.9583" fill="#FFFFFF"/><text fill="#000000" font-family="Verdana" font-size="14" lengthAdjust="spacing" textLength="291.9697" x="352.7835" y="821.3232">vote_count: INT CHECK(vote_count &gt;= 0)</text><path d="M342.6667,829.2552 C340.73,829.2552 339.1667,830.8185 339.1667,832.7552 C339.1667,834.6919 340.73,836.2552 342.6667,836.2552 C344.6033,836.2552 346.1667,834.6919 346.1667,832.7552 C346.1667,830.8185 344.6033,829.2552 342.6667,829.2552" fill="#FFFFFF"/><text fill="#000000" font-family="Verdana" font-size="14" lengthAdjust="spacing" textLength="286.3232" x="352.7835" y="837.6201">avg_vote: FLOAT CHECK(avg_vote &gt;= 0)</text><path d="M342.6667,845.5521 C340.73,845.5521 339.1667,847.1154 339.1667,849.0521 C339.1667,850.9888 340.73,852.5521 342.6667,852.5521 C344.6033,852.5521 346.1667,850.9888 346.1667,849.0521 C346.1667,847.1154 344.6033,845.5521 342.6667,845.5521" fill="#FFFFFF"/><text fill="#000000" font-family="Verdana" font-size="14" lengthAdjust="spacing" textLength="301.1162" x="352.7835" y="853.917">popularity: FLOAT CHECK(popularity &gt;= 0)</text><path d="M342.6667,861.849 C340.73,861.849 339.1667,863.4123 339.1667,865.349 C339.1667,867.2856 340.73,868.849 342.6667,868.849 C344.6033,868.849 346.1667,867.2856 346.1667,865.349 C346.1667,863.4123 344.6033,861.849 342.6667,861.849" fill="#FFFFFF"/><text fill="#000000" font-family="Verdana" font-size="14" lengthAdjust="spacing" textLength="157.3701" x="352.7835" y="870.2139">reviews_sum: VECTOR</text><path d="M342.6667,878.1458 C340.73,878.1458 339.1667,879.7092 339.1667,881.6458 C339.1667,883.5825 340.73,885.1458 342.6667,885.1458 C344.6033,885.1458 346.1667,883.5825 346.1667,881.6458 C346.1667,879.7092 344.6033,878.1458 342.6667,878.1458" fill="#FFFFFF"/><text fill="#000000" font-family="Verdana" font-size="14" lengthAdjust="spacing" textLength="223.6719" x="352.7835" y="886.5107">tmdb_id: INT UNIQUE NOT NULL</text><line style="stroke:#000000;stroke-width:1;" x1="332" x2="658.8997" y1="893.8125" y2="893.8125"/><path d="M344.4167,901.276 C342.8067,901.276 341.5,902.5827 341.5,904.1927 C341.5,904.3794 341.5,904.566 341.535,904.741 L338,908.276 L338,910.6094 L341.5,910.6094 L341.5,908.276 L343.8333,908.276 L343.8333,907.1094 L343.8683,907.0744 C344.0433,907.1094 344.23,907.1094 344.4167,907.1094 C346.0267,907.1094 347.3333,905.8027 347.3333,904.1927 C347.3333,902.5827 346.0267,901.276 344.4167,901.276 M345,902.4427 C345.6417,902.4427 346.1667,902.9677 346.1667,903.6094 C346.1667,904.251 345.6417,904.776 345,904.776 C344.3583,904.776 343.8333,904.251 343.8333,903.6094 C343.8333,902.9677 344.3583,902.4427 345,902.4427" fill="#C0C0C0"/><text fill="#000000" font-family="Verdana" font-size="14" lengthAdjust="spacing" textLength="86.9463" x="352.7835" y="910.8076">collection_id</text></g><!--class genre--><g class="entity" data-entity="genre" data-source-line="13" data-uid="ent0006" id="entity_genre"><rect fill="#FFFFFF" height="88.8594" rx="2.5" ry="2.5" style="stroke:#000000;stroke-width:1;" width="279.8177" x="355.5" y="1109"/><ellipse cx="468.7174" cy="1129.1328" fill="#FFA500" rx="9" ry="9" style="stroke:#000000;stroke-width:1;"/><path d="M469.5612,1135.8828 L467.1081,1135.8828 L467.1081,1125.6328 L463.9674,1125.6328 L463.9674,1123.4922 L472.7018,1123.4922 L472.7018,1125.6328 L469.5612,1125.6328 L469.5612,1135.8828 Z " fill="#000000"/><text fill="#000000" font-family="Verdana" font-size="12" font-style="italic" lengthAdjust="spacing" textLength="45.0762" x="486.6208" y="1125.1387">&#171;table&#187;</text><text fill="#000000" font-family="Verdana" font-size="14" font-weight="bold" lengthAdjust="spacing" textLength="45.8828" x="486.2174" y="1140.9639">genre</text><line style="stroke:#000000;stroke-width:1;" x1="356.5" x2="634.3177" y1="1149.2656" y2="1149.2656"/><path d="M368.9167,1156.7292 C367.3067,1156.7292 366,1158.0358 366,1159.6458 C366,1159.8325 366,1160.0192 366.035,1160.1942 L362.5,1163.7292 L362.5,1166.0625 L366,1166.0625 L366,1163.7292 L368.3333,1163.7292 L368.3333,1162.5625 L368.3683,1162.5275 C368.5433,1162.5625 368.73,1162.5625 368.9167,1162.5625 C370.5267,1162.5625 371.8333,1161.2558 371.8333,1159.6458 C371.8333,1158.0358 370.5267,1156.7292 368.9167,1156.7292 M369.5,1157.8958 C370.1417,1157.8958 370.6667,1158.4208 370.6667,1159.0625 C370.6667,1159.7042 370.1417,1160.2292 369.5,1160.2292 C368.8583,1160.2292 368.3333,1159.7042 368.3333,1159.0625 C368.3333,1158.4208 368.8583,1157.8958 369.5,1157.8958" fill="#DAA520"/><text fill="#000000" font-family="Verdana" font-size="14" lengthAdjust="spacing" textLength="4.4502" x="372.8333" y="1166.2607">&#160;</text><text fill="#000000" font-family="Verdana" font-size="14" font-weight="bold" lengthAdjust="spacing" textLength="14.8203" x="377.2835" y="1166.2607">id</text><text fill="#000000" font-family="Verdana" font-size="14" lengthAdjust="spacing" textLength="58.1328" x="392.1038" y="1166.2607">: SERIAL</text><line style="stroke:#000000;stroke-width:1;" x1="356.5" x2="634.3177" y1="1173.5625" y2="1173.5625"/><path d="M367.1667,1182.1927 C365.23,1182.1927 363.6667,1183.756 363.6667,1185.6927 C363.6667,1187.6294 365.23,1189.1927 367.1667,1189.1927 C369.1033,1189.1927 370.6667,1187.6294 370.6667,1185.6927 C370.6667,1183.756 369.1033,1182.1927 367.1667,1182.1927" fill="#FFFFFF"/><text fill="#000000" font-family="Verdana" font-size="14" lengthAdjust="spacing" textLength="252.0342" x="377.2835" y="1190.5576">name: VARCHAR UNIQUE NOT NULL</text></g><!--class movie_genre--><g class="entity" data-entity="movie_genre" data-source-line="13" data-uid="ent0007" id="entity_movie_genre"><rect fill="#FFFFFF" height="80.8594" rx="2.5" ry="2.5" style="stroke:#000000;stroke-width:1;" width="128.5088" x="825.5" y="1039"/><ellipse cx="838.5" cy="1059.1328" fill="#FFA500" rx="9" ry="9" style="stroke:#000000;stroke-width:1;"/><path d="M839.3438,1065.8828 L836.8906,1065.8828 L836.8906,1055.6328 L833.75,1055.6328 L833.75,1053.4922 L842.4844,1053.4922 L842.4844,1055.6328 L839.3438,1055.6328 L839.3438,1065.8828 Z " fill="#000000"/><text fill="#000000" font-family="Verdana" font-size="12" font-style="italic" lengthAdjust="spacing" textLength="45.0762" x="878.2163" y="1055.1387">&#171;table&#187;</text><text fill="#000000" font-family="Verdana" font-size="14" font-weight="bold" lengthAdjust="spacing" textLength="100.5088" x="850.5" y="1070.9639">movie_genre</text><line style="stroke:#000000;stroke-width:1;" x1="826.5" x2="953.0088" y1="1079.2656" y2="1079.2656"/><path d="M838.9167,1086.7292 C837.3067,1086.7292 836,1088.0358 836,1089.6458 C836,1089.8325 836,1090.0192 836.035,1090.1942 L832.5,1093.7292 L832.5,1096.0625 L836,1096.0625 L836,1093.7292 L838.3333,1093.7292 L838.3333,1092.5625 L838.3683,1092.5275 C838.5433,1092.5625 838.73,1092.5625 838.9167,1092.5625 C840.5267,1092.5625 841.8333,1091.2558 841.8333,1089.6458 C841.8333,1088.0358 840.5267,1086.7292 838.9167,1086.7292 M839.5,1087.8958 C840.1417,1087.8958 840.6667,1088.4208 840.6667,1089.0625 C840.6667,1089.7042 840.1417,1090.2292 839.5,1090.2292 C838.8583,1090.2292 838.3333,1089.7042 838.3333,1089.0625 C838.3333,1088.4208 838.8583,1087.8958 839.5,1087.8958" fill="#C0C0C0"/><text fill="#000000" font-family="Verdana" font-size="14" lengthAdjust="spacing" textLength="62.7676" x="847.2835" y="1096.2607">movie_id</text><path d="M838.9167,1103.026 C837.3067,1103.026 836,1104.3327 836,1105.9427 C836,1106.1294 836,1106.316 836.035,1106.491 L832.5,1110.026 L832.5,1112.3594 L836,1112.3594 L836,1110.026 L838.3333,1110.026 L838.3333,1108.8594 L838.3683,1108.8244 C838.5433,1108.8594 838.73,1108.8594 838.9167,1108.8594 C840.5267,1108.8594 841.8333,1107.5527 841.8333,1105.9427 C841.8333,1104.3327 840.5267,1103.026 838.9167,1103.026 M839.5,1104.1927 C840.1417,1104.1927 840.6667,1104.7177 840.6667,1105.3594 C840.6667,1106.001 840.1417,1106.526 839.5,1106.526 C838.8583,1106.526 838.3333,1106.001 838.3333,1105.3594 C838.3333,1104.7177 838.8583,1104.1927 839.5,1104.1927" fill="#C0C0C0"/><text fill="#000000" font-family="Verdana" font-size="14" lengthAdjust="spacing" textLength="60.5186" x="847.2835" y="1112.5576">genre_id</text></g><!--class keyword--><g class="entity" data-entity="keyword" data-source-line="13" data-uid="ent0010" id="entity_keyword"><rect fill="#FFFFFF" height="88.8594" rx="2.5" ry="2.5" style="stroke:#000000;stroke-width:1;" width="279.8177" x="355.5" y="429"/><ellipse cx="457.9543" cy="449.1328" fill="#FFA500" rx="9" ry="9" style="stroke:#000000;stroke-width:1;"/><path d="M458.798,455.8828 L456.3449,455.8828 L456.3449,445.6328 L453.2043,445.6328 L453.2043,443.4922 L461.9386,443.4922 L461.9386,445.6328 L458.798,445.6328 L458.798,455.8828 Z " fill="#000000"/><text fill="#000000" font-family="Verdana" font-size="12" font-style="italic" lengthAdjust="spacing" textLength="45.0762" x="486.6208" y="445.1387">&#171;table&#187;</text><text fill="#000000" font-family="Verdana" font-size="14" font-weight="bold" lengthAdjust="spacing" textLength="67.4092" x="475.4543" y="460.9639">keyword</text><line style="stroke:#000000;stroke-width:1;" x1="356.5" x2="634.3177" y1="469.2656" y2="469.2656"/><path d="M368.9167,476.7292 C367.3067,476.7292 366,478.0358 366,479.6458 C366,479.8325 366,480.0192 366.035,480.1942 L362.5,483.7292 L362.5,486.0625 L366,486.0625 L366,483.7292 L368.3333,483.7292 L368.3333,482.5625 L368.3683,482.5275 C368.5433,482.5625 368.73,482.5625 368.9167,482.5625 C370.5267,482.5625 371.8333,481.2558 371.8333,479.6458 C371.8333,478.0358 370.5267,476.7292 368.9167,476.7292 M369.5,477.8958 C370.1417,477.8958 370.6667,478.4208 370.6667,479.0625 C370.6667,479.7042 370.1417,480.2292 369.5,480.2292 C368.8583,480.2292 368.3333,479.7042 368.3333,479.0625 C368.3333,478.4208 368.8583,477.8958 369.5,477.8958" fill="#DAA520"/><text fill="#000000" font-family="Verdana" font-size="14" lengthAdjust="spacing" textLength="4.4502" x="372.8333" y="486.2607">&#160;</text><text fill="#000000" font-family="Verdana" font-size="14" font-weight="bold" lengthAdjust="spacing" textLength="14.8203" x="377.2835" y="486.2607">id</text><text fill="#000000" font-family="Verdana" font-size="14" lengthAdjust="spacing" textLength="58.1328" x="392.1038" y="486.2607">: SERIAL</text><line style="stroke:#000000;stroke-width:1;" x1="356.5" x2="634.3177" y1="493.5625" y2="493.5625"/><path d="M367.1667,502.1927 C365.23,502.1927 363.6667,503.756 363.6667,505.6927 C363.6667,507.6294 365.23,509.1927 367.1667,509.1927 C369.1033,509.1927 370.6667,507.6294 370.6667,505.6927 C370.6667,503.756 369.1033,502.1927 367.1667,502.1927" fill="#FFFFFF"/><text fill="#000000" font-family="Verdana" font-size="14" lengthAdjust="spacing" textLength="252.0342" x="377.2835" y="510.5576">name: VARCHAR UNIQUE NOT NULL</text></g><!--class movie_keyword--><g class="entity" data-entity="movie_keyword" data-source-line="13" data-uid="ent0011" id="entity_movie_keyword"><rect fill="#FFFFFF" height="80.8594" rx="2.5" ry="2.5" style="stroke:#000000;stroke-width:1;" width="150.0352" x="814.5" y="507"/><ellipse cx="827.5" cy="527.1328" fill="#FFA500" rx="9" ry="9" style="stroke:#000000;stroke-width:1;"/><path d="M828.3438,533.8828 L825.8906,533.8828 L825.8906,523.6328 L822.75,523.6328 L822.75,521.4922 L831.4844,521.4922 L831.4844,523.6328 L828.3438,523.6328 L828.3438,533.8828 Z " fill="#000000"/><text fill="#000000" font-family="Verdana" font-size="12" font-style="italic" lengthAdjust="spacing" textLength="45.0762" x="877.9795" y="523.1387">&#171;table&#187;</text><text fill="#000000" font-family="Verdana" font-size="14" font-weight="bold" lengthAdjust="spacing" textLength="122.0352" x="839.5" y="538.9639">movie_keyword</text><line style="stroke:#000000;stroke-width:1;" x1="815.5" x2="963.5352" y1="547.2656" y2="547.2656"/><path d="M827.9167,554.7292 C826.3067,554.7292 825,556.0358 825,557.6458 C825,557.8325 825,558.0192 825.035,558.1942 L821.5,561.7292 L821.5,564.0625 L825,564.0625 L825,561.7292 L827.3333,561.7292 L827.3333,560.5625 L827.3683,560.5275 C827.5433,560.5625 827.73,560.5625 827.9167,560.5625 C829.5267,560.5625 830.8333,559.2558 830.8333,557.6458 C830.8333,556.0358 829.5267,554.7292 827.9167,554.7292 M828.5,555.8958 C829.1417,555.8958 829.6667,556.4208 829.6667,557.0625 C829.6667,557.7042 829.1417,558.2292 828.5,558.2292 C827.8583,558.2292 827.3333,557.7042 827.3333,557.0625 C827.3333,556.4208 827.8583,555.8958 828.5,555.8958" fill="#C0C0C0"/><text fill="#000000" font-family="Verdana" font-size="14" lengthAdjust="spacing" textLength="62.7676" x="836.2835" y="564.2607">movie_id</text><path d="M827.9167,571.026 C826.3067,571.026 825,572.3327 825,573.9427 C825,574.1294 825,574.316 825.035,574.491 L821.5,578.026 L821.5,580.3594 L825,580.3594 L825,578.026 L827.3333,578.026 L827.3333,576.8594 L827.3683,576.8244 C827.5433,576.8594 827.73,576.8594 827.9167,576.8594 C829.5267,576.8594 830.8333,575.5527 830.8333,573.9427 C830.8333,572.3327 829.5267,571.026 827.9167,571.026 M828.5,572.1927 C829.1417,572.1927 829.6667,572.7177 829.6667,573.3594 C829.6667,574.001 829.1417,574.526 828.5,574.526 C827.8583,574.526 827.3333,574.001 827.3333,573.3594 C827.3333,572.7177 827.8583,572.1927 828.5,572.1927" fill="#C0C0C0"/><text fill="#000000" font-family="Verdana" font-size="14" lengthAdjust="spacing" textLength="79.4404" x="836.2835" y="580.5576">keyword_id</text></g><!--class country--><g class="entity" data-entity="country" data-source-line="13" data-uid="ent0014" id="entity_country"><rect fill="#FFFFFF" height="105.1563" rx="2.5" ry="2.5" style="stroke:#000000;stroke-width:1;" width="309.349" x="735" y="136.5"/><ellipse cx="855.6379" cy="156.6328" fill="#FFA500" rx="9" ry="9" style="stroke:#000000;stroke-width:1;"/><path d="M856.4816,163.3828 L854.0285,163.3828 L854.0285,153.1328 L850.8879,153.1328 L850.8879,150.9922 L859.6222,150.9922 L859.6222,153.1328 L856.4816,153.1328 L856.4816,163.3828 Z " fill="#000000"/><text fill="#000000" font-family="Verdana" font-size="12" font-style="italic" lengthAdjust="spacing" textLength="45.0762" x="880.8864" y="152.6387">&#171;table&#187;</text><text fill="#000000" font-family="Verdana" font-size="14" font-weight="bold" lengthAdjust="spacing" textLength="60.5732" x="873.1379" y="168.4639">country</text><line style="stroke:#000000;stroke-width:1;" x1="736" x2="1043.349" y1="176.7656" y2="176.7656"/><path d="M748.4167,184.2292 C746.8067,184.2292 745.5,185.5358 745.5,187.1458 C745.5,187.3325 745.5,187.5192 745.535,187.6942 L742,191.2292 L742,193.5625 L745.5,193.5625 L745.5,191.2292 L747.8333,191.2292 L747.8333,190.0625 L747.8683,190.0275 C748.0433,190.0625 748.23,190.0625 748.4167,190.0625 C750.0267,190.0625 751.3333,188.7558 751.3333,187.1458 C751.3333,185.5358 750.0267,184.2292 748.4167,184.2292 M749,185.3958 C749.6417,185.3958 750.1667,185.9208 750.1667,186.5625 C750.1667,187.2042 749.6417,187.7292 749,187.7292 C748.3583,187.7292 747.8333,187.2042 747.8333,186.5625 C747.8333,185.9208 748.3583,185.3958 749,185.3958" fill="#DAA520"/><text fill="#000000" font-family="Verdana" font-size="14" lengthAdjust="spacing" textLength="4.4502" x="752.3333" y="193.7607">&#160;</text><text fill="#000000" font-family="Verdana" font-size="14" font-weight="bold" lengthAdjust="spacing" textLength="14.8203" x="756.7835" y="193.7607">id</text><text fill="#000000" font-family="Verdana" font-size="14" lengthAdjust="spacing" textLength="58.1328" x="771.6038" y="193.7607">: SERIAL</text><line style="stroke:#000000;stroke-width:1;" x1="736" x2="1043.349" y1="201.0625" y2="201.0625"/><path d="M746.6667,209.6927 C744.73,209.6927 743.1667,211.256 743.1667,213.1927 C743.1667,215.1294 744.73,216.6927 746.6667,216.6927 C748.6033,216.6927 750.1667,215.1294 750.1667,213.1927 C750.1667,211.256 748.6033,209.6927 746.6667,209.6927" fill="#FFFFFF"/><text fill="#000000" font-family="Verdana" font-size="14" lengthAdjust="spacing" textLength="252.0342" x="756.7835" y="218.0576">name: VARCHAR UNIQUE NOT NULL</text><path d="M746.6667,225.9896 C744.73,225.9896 743.1667,227.5529 743.1667,229.4896 C743.1667,231.4263 744.73,232.9896 746.6667,232.9896 C748.6033,232.9896 750.1667,231.4263 750.1667,229.4896 C750.1667,227.5529 748.6033,225.9896 746.6667,225.9896" fill="#FFFFFF"/><text fill="#000000" font-family="Verdana" font-size="14" lengthAdjust="spacing" textLength="281.5654" x="756.7835" y="234.3545">iso_3166_1: CHAR(2) UNIQUE NOT NULL</text></g><!--class gender--><g class="entity" data-entity="gender" data-source-line="13" data-uid="ent0015" id="entity_gender"><rect fill="#FFFFFF" height="88.8594" rx="2.5" ry="2.5" style="stroke:#000000;stroke-width:1;" width="279.8177" x="750" y="322"/><ellipse cx="858.2067" cy="342.1328" fill="#FFA500" rx="9" ry="9" style="stroke:#000000;stroke-width:1;"/><path d="M859.0505,348.8828 L856.5973,348.8828 L856.5973,338.6328 L853.4567,338.6328 L853.4567,336.4922 L862.1911,336.4922 L862.1911,338.6328 L859.0505,338.6328 L859.0505,348.8828 Z " fill="#000000"/><text fill="#000000" font-family="Verdana" font-size="12" font-style="italic" lengthAdjust="spacing" textLength="45.0762" x="881.1208" y="338.1387">&#171;table&#187;</text><text fill="#000000" font-family="Verdana" font-size="14" font-weight="bold" lengthAdjust="spacing" textLength="55.9043" x="875.7067" y="353.9639">gender</text><line style="stroke:#000000;stroke-width:1;" x1="751" x2="1028.8177" y1="362.2656" y2="362.2656"/><path d="M763.4167,369.7292 C761.8067,369.7292 760.5,371.0358 760.5,372.6458 C760.5,372.8325 760.5,373.0192 760.535,373.1942 L757,376.7292 L757,379.0625 L760.5,379.0625 L760.5,376.7292 L762.8333,376.7292 L762.8333,375.5625 L762.8683,375.5275 C763.0433,375.5625 763.23,375.5625 763.4167,375.5625 C765.0267,375.5625 766.3333,374.2558 766.3333,372.6458 C766.3333,371.0358 765.0267,369.7292 763.4167,369.7292 M764,370.8958 C764.6417,370.8958 765.1667,371.4208 765.1667,372.0625 C765.1667,372.7042 764.6417,373.2292 764,373.2292 C763.3583,373.2292 762.8333,372.7042 762.8333,372.0625 C762.8333,371.4208 763.3583,370.8958 764,370.8958" fill="#DAA520"/><text fill="#000000" font-family="Verdana" font-size="14" lengthAdjust="spacing" textLength="4.4502" x="767.3333" y="379.2607">&#160;</text><text fill="#000000" font-family="Verdana" font-size="14" font-weight="bold" lengthAdjust="spacing" textLength="14.8203" x="771.7835" y="379.2607">id</text><text fill="#000000" font-family="Verdana" font-size="14" lengthAdjust="spacing" textLength="58.1328" x="786.6038" y="379.2607">: SERIAL</text><line style="stroke:#000000;stroke-width:1;" x1="751" x2="1028.8177" y1="386.5625" y2="386.5625"/><path d="M761.6667,395.1927 C759.73,395.1927 758.1667,396.756 758.1667,398.6927 C758.1667,400.6294 759.73,402.1927 761.6667,402.1927 C763.6033,402.1927 765.1667,400.6294 765.1667,398.6927 C765.1667,396.756 763.6033,395.1927 761.6667,395.1927" fill="#FFFFFF"/><text fill="#000000" font-family="Verdana" font-size="14" lengthAdjust="spacing" textLength="252.0342" x="771.7835" y="403.5576">name: VARCHAR UNIQUE NOT NULL</text></g><!--class person--><g class="entity" data-entity="person" data-source-line="13" data-uid="ent0016" id="entity_person"><rect fill="#FFFFFF" height="178.3438" rx="2.5" ry="2.5" style="stroke:#000000;stroke-width:1;" width="328.8997" x="331" y="208"/><ellipse cx="464.5304" cy="228.1328" fill="#FFA500" rx="9" ry="9" style="stroke:#000000;stroke-width:1;"/><path d="M465.3742,234.8828 L462.9211,234.8828 L462.9211,224.6328 L459.7804,224.6328 L459.7804,222.4922 L468.5148,222.4922 L468.5148,224.6328 L465.3742,224.6328 L465.3742,234.8828 Z " fill="#000000"/><text fill="#000000" font-family="Verdana" font-size="12" font-style="italic" lengthAdjust="spacing" textLength="45.0762" x="486.6618" y="224.1387">&#171;table&#187;</text><text fill="#000000" font-family="Verdana" font-size="14" font-weight="bold" lengthAdjust="spacing" textLength="54.3389" x="482.0304" y="239.9639">person</text><line style="stroke:#000000;stroke-width:1;" x1="332" x2="658.8997" y1="248.2656" y2="248.2656"/><path d="M344.4167,255.7292 C342.8067,255.7292 341.5,257.0358 341.5,258.6458 C341.5,258.8325 341.5,259.0192 341.535,259.1942 L338,262.7292 L338,265.0625 L341.5,265.0625 L341.5,262.7292 L343.8333,262.7292 L343.8333,261.5625 L343.8683,261.5275 C344.0433,261.5625 344.23,261.5625 344.4167,261.5625 C346.0267,261.5625 347.3333,260.2558 347.3333,258.6458 C347.3333,257.0358 346.0267,255.7292 344.4167,255.7292 M345,256.8958 C345.6417,256.8958 346.1667,257.4208 346.1667,258.0625 C346.1667,258.7042 345.6417,259.2292 345,259.2292 C344.3583,259.2292 343.8333,258.7042 343.8333,258.0625 C343.8333,257.4208 344.3583,256.8958 345,256.8958" fill="#DAA520"/><text fill="#000000" font-family="Verdana" font-size="14" lengthAdjust="spacing" textLength="4.4502" x="348.3333" y="265.2607">&#160;</text><text fill="#000000" font-family="Verdana" font-size="14" font-weight="bold" lengthAdjust="spacing" textLength="14.8203" x="352.7835" y="265.2607">id</text><text fill="#000000" font-family="Verdana" font-size="14" lengthAdjust="spacing" textLength="58.1328" x="367.6038" y="265.2607">: SERIAL</text><line style="stroke:#000000;stroke-width:1;" x1="332" x2="658.8997" y1="272.5625" y2="272.5625"/><path d="M342.6667,281.1927 C340.73,281.1927 339.1667,282.756 339.1667,284.6927 C339.1667,286.6294 340.73,288.1927 342.6667,288.1927 C344.6033,288.1927 346.1667,286.6294 346.1667,284.6927 C346.1667,282.756 344.6033,281.1927 342.6667,281.1927" fill="#FFFFFF"/><text fill="#000000" font-family="Verdana" font-size="14" lengthAdjust="spacing" textLength="192.623" x="352.7835" y="289.5576">name: VARCHAR NOT NULL</text><path d="M342.6667,297.4896 C340.73,297.4896 339.1667,299.0529 339.1667,300.9896 C339.1667,302.9263 340.73,304.4896 342.6667,304.4896 C344.6033,304.4896 346.1667,302.9263 346.1667,300.9896 C346.1667,299.0529 344.6033,297.4896 342.6667,297.4896" fill="#FFFFFF"/><text fill="#000000" font-family="Verdana" font-size="14" lengthAdjust="spacing" textLength="118.3848" x="352.7835" y="305.8545">birth_date: DATE</text><path d="M342.6667,313.7865 C340.73,313.7865 339.1667,315.3498 339.1667,317.2865 C339.1667,319.2231 340.73,320.7865 342.6667,320.7865 C344.6033,320.7865 346.1667,319.2231 346.1667,317.2865 C346.1667,315.3498 344.6033,313.7865 342.6667,313.7865" fill="#FFFFFF"/><text fill="#000000" font-family="Verdana" font-size="14" lengthAdjust="spacing" textLength="198.3105" x="352.7835" y="322.1514">profile_image_url: VARCHAR</text><path d="M342.6667,330.0833 C340.73,330.0833 339.1667,331.6467 339.1667,333.5833 C339.1667,335.52 340.73,337.0833 342.6667,337.0833 C344.6033,337.0833 346.1667,335.52 346.1667,333.5833 C346.1667,331.6467 344.6033,330.0833 342.6667,330.0833" fill="#FFFFFF"/><text fill="#000000" font-family="Verdana" font-size="14" lengthAdjust="spacing" textLength="301.1162" x="352.7835" y="338.4482">popularity: FLOAT CHECK(popularity &gt;= 0)</text><line style="stroke:#000000;stroke-width:1;" x1="332" x2="658.8997" y1="345.75" y2="345.75"/><path d="M344.4167,353.2135 C342.8067,353.2135 341.5,354.5202 341.5,356.1302 C341.5,356.3169 341.5,356.5035 341.535,356.6785 L338,360.2135 L338,362.5469 L341.5,362.5469 L341.5,360.2135 L343.8333,360.2135 L343.8333,359.0469 L343.8683,359.0119 C344.0433,359.0469 344.23,359.0469 344.4167,359.0469 C346.0267,359.0469 347.3333,357.7402 347.3333,356.1302 C347.3333,354.5202 346.0267,353.2135 344.4167,353.2135 M345,354.3802 C345.6417,354.3802 346.1667,354.9052 346.1667,355.5469 C346.1667,356.1885 345.6417,356.7135 345,356.7135 C344.3583,356.7135 343.8333,356.1885 343.8333,355.5469 C343.8333,354.9052 344.3583,354.3802 345,354.3802" fill="#C0C0C0"/><text fill="#000000" font-family="Verdana" font-size="14" lengthAdjust="spacing" textLength="145.5303" x="352.7835" y="362.7451">birth_country_id: INT</text><path d="M344.4167,369.5104 C342.8067,369.5104 341.5,370.8171 341.5,372.4271 C341.5,372.6138 341.5,372.8004 341.535,372.9754 L338,376.5104 L338,378.8437 L341.5,378.8437 L341.5,376.5104 L343.8333,376.5104 L343.8333,375.3437 L343.8683,375.3088 C344.0433,375.3437 344.23,375.3437 344.4167,375.3437 C346.0267,375.3437 347.3333,374.0371 347.3333,372.4271 C347.3333,370.8171 346.0267,369.5104 344.4167,369.5104 M345,370.6771 C345.6417,370.6771 346.1667,371.2021 346.1667,371.8437 C346.1667,372.4854 345.6417,373.0104 345,373.0104 C344.3583,373.0104 343.8333,372.4854 343.8333,371.8437 C343.8333,371.2021 344.3583,370.6771 345,370.6771" fill="#C0C0C0"/><text fill="#000000" font-family="Verdana" font-size="14" lengthAdjust="spacing" textLength="101.7256" x="352.7835" y="379.042">gender_id: INT</text></g><!--class job--><g class="entity" data-entity="job" data-source-line="13" data-uid="ent0019" id="entity_job"><rect fill="#FFFFFF" height="105.1563" rx="2.5" ry="2.5" style="stroke:#000000;stroke-width:1;" width="279.8177" x="355.5" y="960.5"/><ellipse cx="471.1208" cy="980.6328" fill="#FFA500" rx="9" ry="9" style="stroke:#000000;stroke-width:1;"/><path d="M471.9645,987.3828 L469.5114,987.3828 L469.5114,977.1328 L466.3708,977.1328 L466.3708,974.9922 L475.1051,974.9922 L475.1051,977.1328 L471.9645,977.1328 L471.9645,987.3828 Z " fill="#000000"/><text fill="#000000" font-family="Verdana" font-size="12" font-style="italic" lengthAdjust="spacing" textLength="45.0762" x="486.6208" y="976.6387">&#171;table&#187;</text><text fill="#000000" font-family="Verdana" font-size="14" font-weight="bold" lengthAdjust="spacing" textLength="24.4385" x="496.9396" y="992.4639">job</text><line style="stroke:#000000;stroke-width:1;" x1="356.5" x2="634.3177" y1="1000.7656" y2="1000.7656"/><path d="M368.9167,1008.2292 C367.3067,1008.2292 366,1009.5358 366,1011.1458 C366,1011.3325 366,1011.5192 366.035,1011.6942 L362.5,1015.2292 L362.5,1017.5625 L366,1017.5625 L366,1015.2292 L368.3333,1015.2292 L368.3333,1014.0625 L368.3683,1014.0275 C368.5433,1014.0625 368.73,1014.0625 368.9167,1014.0625 C370.5267,1014.0625 371.8333,1012.7558 371.8333,1011.1458 C371.8333,1009.5358 370.5267,1008.2292 368.9167,1008.2292 M369.5,1009.3958 C370.1417,1009.3958 370.6667,1009.9208 370.6667,1010.5625 C370.6667,1011.2042 370.1417,1011.7292 369.5,1011.7292 C368.8583,1011.7292 368.3333,1011.2042 368.3333,1010.5625 C368.3333,1009.9208 368.8583,1009.3958 369.5,1009.3958" fill="#DAA520"/><text fill="#000000" font-family="Verdana" font-size="14" lengthAdjust="spacing" textLength="4.4502" x="372.8333" y="1017.7607">&#160;</text><text fill="#000000" font-family="Verdana" font-size="14" font-weight="bold" lengthAdjust="spacing" textLength="14.8203" x="377.2835" y="1017.7607">id</text><text fill="#000000" font-family="Verdana" font-size="14" lengthAdjust="spacing" textLength="58.1328" x="392.1038" y="1017.7607">: SERIAL</text><line style="stroke:#000000;stroke-width:1;" x1="356.5" x2="634.3177" y1="1025.0625" y2="1025.0625"/><path d="M367.1667,1033.6927 C365.23,1033.6927 363.6667,1035.256 363.6667,1037.1927 C363.6667,1039.1294 365.23,1040.6927 367.1667,1040.6927 C369.1033,1040.6927 370.6667,1039.1294 370.6667,1037.1927 C370.6667,1035.256 369.1033,1033.6927 367.1667,1033.6927" fill="#FFFFFF"/><text fill="#000000" font-family="Verdana" font-size="14" lengthAdjust="spacing" textLength="252.0342" x="377.2835" y="1042.0576">name: VARCHAR UNIQUE NOT NULL</text><path d="M367.1667,1049.9896 C365.23,1049.9896 363.6667,1051.5529 363.6667,1053.4896 C363.6667,1055.4263 365.23,1056.9896 367.1667,1056.9896 C369.1033,1056.9896 370.6667,1055.4263 370.6667,1053.4896 C370.6667,1051.5529 369.1033,1049.9896 367.1667,1049.9896" fill="#FFFFFF"/><text fill="#000000" font-family="Verdana" font-size="14" lengthAdjust="spacing" textLength="235.7441" x="377.2835" y="1058.3545">department: VARCHAR NOT NULL</text></g><!--class cast_credit--><g class="entity" data-entity="cast_credit" data-source-line="13" data-uid="ent0020" id="entity_cast_credit"><rect fill="#FFFFFF" height="145.75" rx="2.5" ry="2.5" style="stroke:#000000;stroke-width:1;" width="219.1829" x="36" y="430.5"/><ellipse cx="98.8503" cy="450.6328" fill="#FFA500" rx="9" ry="9" style="stroke:#000000;stroke-width:1;"/><path d="M99.694,457.3828 L97.2409,457.3828 L97.2409,447.1328 L94.1003,447.1328 L94.1003,444.9922 L102.8346,444.9922 L102.8346,447.1328 L99.694,447.1328 L99.694,457.3828 Z " fill="#000000"/><text fill="#000000" font-family="Verdana" font-size="12" font-style="italic" lengthAdjust="spacing" textLength="45.0762" x="136.8034" y="446.6387">&#171;table&#187;</text><text fill="#000000" font-family="Verdana" font-size="14" font-weight="bold" lengthAdjust="spacing" textLength="85.9824" x="116.3503" y="462.4639">cast_credit</text><line style="stroke:#000000;stroke-width:1;" x1="37" x2="254.1829" y1="470.7656" y2="470.7656"/><path d="M49.4167,478.2292 C47.8067,478.2292 46.5,479.5358 46.5,481.1458 C46.5,481.3325 46.5,481.5192 46.535,481.6942 L43,485.2292 L43,487.5625 L46.5,487.5625 L46.5,485.2292 L48.8333,485.2292 L48.8333,484.0625 L48.8683,484.0275 C49.0433,484.0625 49.23,484.0625 49.4167,484.0625 C51.0267,484.0625 52.3333,482.7558 52.3333,481.1458 C52.3333,479.5358 51.0267,478.2292 49.4167,478.2292 M50,479.3958 C50.6417,479.3958 51.1667,479.9208 51.1667,480.5625 C51.1667,481.2042 50.6417,481.7292 50,481.7292 C49.3583,481.7292 48.8333,481.2042 48.8333,480.5625 C48.8333,479.9208 49.3583,479.3958 50,479.3958" fill="#DAA520"/><text fill="#000000" font-family="Verdana" font-size="14" lengthAdjust="spacing" textLength="4.4502" x="53.3333" y="487.7607">&#160;</text><text fill="#000000" font-family="Verdana" font-size="14" font-weight="bold" lengthAdjust="spacing" textLength="14.8203" x="57.7835" y="487.7607">id</text><text fill="#000000" font-family="Verdana" font-size="14" lengthAdjust="spacing" textLength="58.1328" x="72.6038" y="487.7607">: SERIAL</text><line style="stroke:#000000;stroke-width:1;" x1="37" x2="254.1829" y1="495.0625" y2="495.0625"/><path d="M47.6667,503.6927 C45.73,503.6927 44.1667,505.256 44.1667,507.1927 C44.1667,509.1294 45.73,510.6927 47.6667,510.6927 C49.6033,510.6927 51.1667,509.1294 51.1667,507.1927 C51.1667,505.256 49.6033,503.6927 47.6667,503.6927" fill="#FFFFFF"/><text fill="#000000" font-family="Verdana" font-size="14" lengthAdjust="spacing" textLength="191.3994" x="57.7835" y="512.0576">character_name: VARCHAR</text><line style="stroke:#000000;stroke-width:1;" x1="37" x2="254.1829" y1="519.3594" y2="519.3594"/><path d="M49.4167,526.8229 C47.8067,526.8229 46.5,528.1296 46.5,529.7396 C46.5,529.9263 46.5,530.1129 46.535,530.2879 L43,533.8229 L43,536.1563 L46.5,536.1563 L46.5,533.8229 L48.8333,533.8229 L48.8333,532.6563 L48.8683,532.6212 C49.0433,532.6563 49.23,532.6563 49.4167,532.6563 C51.0267,532.6563 52.3333,531.3496 52.3333,529.7396 C52.3333,528.1296 51.0267,526.8229 49.4167,526.8229 M50,527.9896 C50.6417,527.9896 51.1667,528.5146 51.1667,529.1563 C51.1667,529.7979 50.6417,530.3229 50,530.3229 C49.3583,530.3229 48.8333,529.7979 48.8333,529.1563 C48.8333,528.5146 49.3583,527.9896 50,527.9896" fill="#C0C0C0"/><text fill="#000000" font-family="Verdana" font-size="14" lengthAdjust="spacing" textLength="95.0879" x="57.7835" y="536.3545">movie_id: INT</text><path d="M49.4167,543.1198 C47.8067,543.1198 46.5,544.4265 46.5,546.0365 C46.5,546.2231 46.5,546.4098 46.535,546.5848 L43,550.1198 L43,552.4531 L46.5,552.4531 L46.5,550.1198 L48.8333,550.1198 L48.8333,548.9531 L48.8683,548.9181 C49.0433,548.9531 49.23,548.9531 49.4167,548.9531 C51.0267,548.9531 52.3333,547.6465 52.3333,546.0365 C52.3333,544.4265 51.0267,543.1198 49.4167,543.1198 M50,544.2865 C50.6417,544.2865 51.1667,544.8115 51.1667,545.4531 C51.1667,546.0948 50.6417,546.6198 50,546.6198 C49.3583,546.6198 48.8333,546.0948 48.8333,545.4531 C48.8333,544.8115 49.3583,544.2865 50,544.2865" fill="#C0C0C0"/><text fill="#000000" font-family="Verdana" font-size="14" lengthAdjust="spacing" textLength="100.085" x="57.7835" y="552.6514">person_id: INT</text><path d="M49.4167,559.4167 C47.8067,559.4167 46.5,560.7233 46.5,562.3333 C46.5,562.52 46.5,562.7067 46.535,562.8817 L43,566.4167 L43,568.75 L46.5,568.75 L46.5,566.4167 L48.8333,566.4167 L48.8333,565.25 L48.8683,565.215 C49.0433,565.25 49.23,565.25 49.4167,565.25 C51.0267,565.25 52.3333,563.9433 52.3333,562.3333 C52.3333,560.7233 51.0267,559.4167 49.4167,559.4167 M50,560.5833 C50.6417,560.5833 51.1667,561.1083 51.1667,561.75 C51.1667,562.3917 50.6417,562.9167 50,562.9167 C49.3583,562.9167 48.8333,562.3917 48.8333,561.75 C48.8333,561.1083 49.3583,560.5833 50,560.5833" fill="#C0C0C0"/><text fill="#000000" font-family="Verdana" font-size="14" lengthAdjust="spacing" textLength="73.4385" x="57.7835" y="568.9482">job_id: INT</text></g><!--class crew_credit--><g class="entity" data-entity="crew_credit" data-source-line="13" data-uid="ent0024" id="entity_crew_credit"><rect fill="#FFFFFF" height="121.4531" rx="2.5" ry="2.5" style="stroke:#000000;stroke-width:1;" width="127.8685" x="82" y="618.5"/><ellipse cx="99.0616" cy="638.6328" fill="#FFA500" rx="9" ry="9" style="stroke:#000000;stroke-width:1;"/><path d="M99.9053,645.3828 L97.4522,645.3828 L97.4522,635.1328 L94.3116,635.1328 L94.3116,632.9922 L103.0459,632.9922 L103.0459,635.1328 L99.9053,635.1328 L99.9053,645.3828 Z " fill="#000000"/><text fill="#000000" font-family="Verdana" font-size="12" font-style="italic" lengthAdjust="spacing" textLength="45.0762" x="134.8474" y="634.6387">&#171;table&#187;</text><text fill="#000000" font-family="Verdana" font-size="14" font-weight="bold" lengthAdjust="spacing" textLength="90.8428" x="111.9641" y="650.4639">crew_credit</text><line style="stroke:#000000;stroke-width:1;" x1="83" x2="208.8685" y1="658.7656" y2="658.7656"/><path d="M95.4167,666.2292 C93.8067,666.2292 92.5,667.5358 92.5,669.1458 C92.5,669.3325 92.5,669.5192 92.535,669.6942 L89,673.2292 L89,675.5625 L92.5,675.5625 L92.5,673.2292 L94.8333,673.2292 L94.8333,672.0625 L94.8683,672.0275 C95.0433,672.0625 95.23,672.0625 95.4167,672.0625 C97.0267,672.0625 98.3333,670.7558 98.3333,669.1458 C98.3333,667.5358 97.0267,666.2292 95.4167,666.2292 M96,667.3958 C96.6417,667.3958 97.1667,667.9208 97.1667,668.5625 C97.1667,669.2042 96.6417,669.7292 96,669.7292 C95.3583,669.7292 94.8333,669.2042 94.8333,668.5625 C94.8333,667.9208 95.3583,667.3958 96,667.3958" fill="#DAA520"/><text fill="#000000" font-family="Verdana" font-size="14" lengthAdjust="spacing" textLength="4.4502" x="99.3333" y="675.7607">&#160;</text><text fill="#000000" font-family="Verdana" font-size="14" font-weight="bold" lengthAdjust="spacing" textLength="14.8203" x="103.7835" y="675.7607">id</text><text fill="#000000" font-family="Verdana" font-size="14" lengthAdjust="spacing" textLength="58.1328" x="118.6038" y="675.7607">: SERIAL</text><line style="stroke:#000000;stroke-width:1;" x1="83" x2="208.8685" y1="683.0625" y2="683.0625"/><path d="M95.4167,690.526 C93.8067,690.526 92.5,691.8327 92.5,693.4427 C92.5,693.6294 92.5,693.816 92.535,693.991 L89,697.526 L89,699.8594 L92.5,699.8594 L92.5,697.526 L94.8333,697.526 L94.8333,696.3594 L94.8683,696.3244 C95.0433,696.3594 95.23,696.3594 95.4167,696.3594 C97.0267,696.3594 98.3333,695.0527 98.3333,693.4427 C98.3333,691.8327 97.0267,690.526 95.4167,690.526 M96,691.6927 C96.6417,691.6927 97.1667,692.2177 97.1667,692.8594 C97.1667,693.501 96.6417,694.026 96,694.026 C95.3583,694.026 94.8333,693.501 94.8333,692.8594 C94.8333,692.2177 95.3583,691.6927 96,691.6927" fill="#C0C0C0"/><text fill="#000000" font-family="Verdana" font-size="14" lengthAdjust="spacing" textLength="95.0879" x="103.7835" y="700.0576">movie_id: INT</text><path d="M95.4167,706.8229 C93.8067,706.8229 92.5,708.1296 92.5,709.7396 C92.5,709.9263 92.5,710.1129 92.535,710.2879 L89,713.8229 L89,716.1563 L92.5,716.1563 L92.5,713.8229 L94.8333,713.8229 L94.8333,712.6563 L94.8683,712.6212 C95.0433,712.6563 95.23,712.6563 95.4167,712.6563 C97.0267,712.6563 98.3333,711.3496 98.3333,709.7396 C98.3333,708.1296 97.0267,706.8229 95.4167,706.8229 M96,707.9896 C96.6417,707.9896 97.1667,708.5146 97.1667,709.1563 C97.1667,709.7979 96.6417,710.3229 96,710.3229 C95.3583,710.3229 94.8333,709.7979 94.8333,709.1563 C94.8333,708.5146 95.3583,707.9896 96,707.9896" fill="#C0C0C0"/><text fill="#000000" font-family="Verdana" font-size="14" lengthAdjust="spacing" textLength="100.085" x="103.7835" y="716.3545">person_id: INT</text><path d="M95.4167,723.1198 C93.8067,723.1198 92.5,724.4265 92.5,726.0365 C92.5,726.2231 92.5,726.4098 92.535,726.5848 L89,730.1198 L89,732.4531 L92.5,732.4531 L92.5,730.1198 L94.8333,730.1198 L94.8333,728.9531 L94.8683,728.9181 C95.0433,728.9531 95.23,728.9531 95.4167,728.9531 C97.0267,728.9531 98.3333,727.6465 98.3333,726.0365 C98.3333,724.4265 97.0267,723.1198 95.4167,723.1198 M96,724.2865 C96.6417,724.2865 97.1667,724.8115 97.1667,725.4531 C97.1667,726.0948 96.6417,726.6198 96,726.6198 C95.3583,726.6198 94.8333,726.0948 94.8333,725.4531 C94.8333,724.8115 95.3583,724.2865 96,724.2865" fill="#C0C0C0"/><text fill="#000000" font-family="Verdana" font-size="14" lengthAdjust="spacing" textLength="73.4385" x="103.7835" y="732.6514">job_id: INT</text></g><!--class company--><g class="entity" data-entity="company" data-source-line="13" data-uid="ent0028" id="entity_company"><rect fill="#FFFFFF" height="113.1563" rx="2.5" ry="2.5" style="stroke:#000000;stroke-width:1;" width="279.8177" x="355.5" y="51.5"/><ellipse cx="456.1257" cy="71.6328" fill="#FFA500" rx="9" ry="9" style="stroke:#000000;stroke-width:1;"/><path d="M456.9694,78.3828 L454.5163,78.3828 L454.5163,68.1328 L451.3757,68.1328 L451.3757,65.9922 L460.11,65.9922 L460.11,68.1328 L456.9694,68.1328 L456.9694,78.3828 Z " fill="#000000"/><text fill="#000000" font-family="Verdana" font-size="12" font-style="italic" lengthAdjust="spacing" textLength="45.0762" x="486.6208" y="67.6387">&#171;table&#187;</text><text fill="#000000" font-family="Verdana" font-size="14" font-weight="bold" lengthAdjust="spacing" textLength="71.0664" x="473.6257" y="83.4639">company</text><line style="stroke:#000000;stroke-width:1;" x1="356.5" x2="634.3177" y1="91.7656" y2="91.7656"/><path d="M368.9167,99.2292 C367.3067,99.2292 366,100.5358 366,102.1458 C366,102.3325 366,102.5192 366.035,102.6942 L362.5,106.2292 L362.5,108.5625 L366,108.5625 L366,106.2292 L368.3333,106.2292 L368.3333,105.0625 L368.3683,105.0275 C368.5433,105.0625 368.73,105.0625 368.9167,105.0625 C370.5267,105.0625 371.8333,103.7558 371.8333,102.1458 C371.8333,100.5358 370.5267,99.2292 368.9167,99.2292 M369.5,100.3958 C370.1417,100.3958 370.6667,100.9208 370.6667,101.5625 C370.6667,102.2042 370.1417,102.7292 369.5,102.7292 C368.8583,102.7292 368.3333,102.2042 368.3333,101.5625 C368.3333,100.9208 368.8583,100.3958 369.5,100.3958" fill="#DAA520"/><text fill="#000000" font-family="Verdana" font-size="14" lengthAdjust="spacing" textLength="4.4502" x="372.8333" y="108.7607">&#160;</text><text fill="#000000" font-family="Verdana" font-size="14" font-weight="bold" lengthAdjust="spacing" textLength="14.8203" x="377.2835" y="108.7607">id</text><text fill="#000000" font-family="Verdana" font-size="14" lengthAdjust="spacing" textLength="58.1328" x="392.1038" y="108.7607">: SERIAL</text><line style="stroke:#000000;stroke-width:1;" x1="356.5" x2="634.3177" y1="116.0625" y2="116.0625"/><path d="M367.1667,124.6927 C365.23,124.6927 363.6667,126.256 363.6667,128.1927 C363.6667,130.1294 365.23,131.6927 367.1667,131.6927 C369.1033,131.6927 370.6667,130.1294 370.6667,128.1927 C370.6667,126.256 369.1033,124.6927 367.1667,124.6927" fill="#FFFFFF"/><text fill="#000000" font-family="Verdana" font-size="14" lengthAdjust="spacing" textLength="252.0342" x="377.2835" y="133.0576">name: VARCHAR UNIQUE NOT NULL</text><line style="stroke:#000000;stroke-width:1;" x1="356.5" x2="634.3177" y1="140.3594" y2="140.3594"/><text fill="#000000" font-family="Verdana" font-size="14" lengthAdjust="spacing" textLength="129.5957" x="361.5" y="157.3545">fk(country_id): INT</text></g><!--link movie to collection--><g class="link" data-entity-1="movie" data-entity-2="collection" data-source-line="74" data-uid="lnk5" id="link_movie_collection"><path codeLine="74" d="M668,905.5 C707.56,905.5 701.44,905 741,905" fill="none" id="movie-collection" style="stroke:#000000;stroke-width:1;"/><line style="stroke:#000000;stroke-width:1;" x1="668" x2="660" y1="905.5" y2="911.5"/><line style="stroke:#000000;stroke-width:1;" x1="668" x2="660" y1="905.5" y2="899.5"/><line style="stroke:#000000;stroke-width:1;" x1="668" x2="660" y1="905.5" y2="905.5"/><line style="stroke:#000000;stroke-width:1;" x1="670" x2="670" y1="909.5" y2="901.5"/><line style="stroke:#000000;stroke-width:1;" x1="745" x2="745" y1="901" y2="909"/><line style="stroke:#000000;stroke-width:1;" x1="742" x2="742" y1="901" y2="909"/><line style="stroke:#000000;stroke-width:1;" x1="741" x2="749" y1="905" y2="905"/></g><!--link movie to movie_genre--><g class="link" data-entity-1="movie" data-entity-2="movie_genre" data-source-line="92" data-uid="lnk8" id="link_movie_movie_genre"><path codeLine="92" d="M668,612.5 C747.08,612.5 694.88,889.74 727,962 C756.19,1027.67 744.63,1091 816.5,1091" fill="none" id="movie-movie_genre" style="stroke:#000000;stroke-width:1;"/><line style="stroke:#000000;stroke-width:1;" x1="664" x2="664" y1="616.5" y2="608.5"/><line style="stroke:#000000;stroke-width:1;" x1="667" x2="667" y1="616.5" y2="608.5"/><line style="stroke:#000000;stroke-width:1;" x1="668" x2="660" y1="612.5" y2="612.5"/><line style="stroke:#000000;stroke-width:1;" x1="816.5" x2="824.5" y1="1091" y2="1085"/><line style="stroke:#000000;stroke-width:1;" x1="816.5" x2="824.5" y1="1091" y2="1097"/><line style="stroke:#000000;stroke-width:1;" x1="816.5" x2="824.5" y1="1091" y2="1091"/><line style="stroke:#000000;stroke-width:1;" x1="814.5" x2="814.5" y1="1087" y2="1095"/></g><!--link genre to movie_genre--><g class="link" data-entity-1="genre" data-entity-2="movie_genre" data-source-line="93" data-uid="lnk9" id="link_genre_movie_genre"><path codeLine="93" d="M643.5,1161 C730.86,1161 729.14,1107 816.5,1107" fill="none" id="genre-movie_genre" style="stroke:#000000;stroke-width:1;"/><line style="stroke:#000000;stroke-width:1;" x1="639.5" x2="639.5" y1="1165" y2="1157"/><line style="stroke:#000000;stroke-width:1;" x1="642.5" x2="642.5" y1="1165" y2="1157"/><line style="stroke:#000000;stroke-width:1;" x1="643.5" x2="635.5" y1="1161" y2="1161"/><line style="stroke:#000000;stroke-width:1;" x1="816.5" x2="824.5" y1="1107" y2="1101"/><line style="stroke:#000000;stroke-width:1;" x1="816.5" x2="824.5" y1="1107" y2="1113"/><line style="stroke:#000000;stroke-width:1;" x1="816.5" x2="824.5" y1="1107" y2="1107"/><line style="stroke:#000000;stroke-width:1;" x1="814.5" x2="814.5" y1="1103" y2="1111"/></g><!--link movie to movie_keyword--><g class="link" data-entity-1="movie" data-entity-2="movie_keyword" data-source-line="107" data-uid="lnk12" id="link_movie_movie_keyword"><path codeLine="107" d="M668,612.5 C740.25,612.5 733.25,559 805.5,559" fill="none" id="movie-movie_keyword" style="stroke:#000000;stroke-width:1;"/><line style="stroke:#000000;stroke-width:1;" x1="664" x2="664" y1="616.5" y2="608.5"/><line style="stroke:#000000;stroke-width:1;" x1="667" x2="667" y1="616.5" y2="608.5"/><line style="stroke:#000000;stroke-width:1;" x1="668" x2="660" y1="612.5" y2="612.5"/><line style="stroke:#000000;stroke-width:1;" x1="805.5" x2="813.5" y1="559" y2="553"/><line style="stroke:#000000;stroke-width:1;" x1="805.5" x2="813.5" y1="559" y2="565"/><line style="stroke:#000000;stroke-width:1;" x1="805.5" x2="813.5" y1="559" y2="559"/><line style="stroke:#000000;stroke-width:1;" x1="803.5" x2="803.5" y1="555" y2="563"/></g><!--link keyword to movie_keyword--><g class="link" data-entity-1="keyword" data-entity-2="movie_keyword" data-source-line="108" data-uid="lnk13" id="link_keyword_movie_keyword"><path codeLine="108" d="M643.5,481 C732.96,481 716.04,575 805.5,575" fill="none" id="keyword-movie_keyword" style="stroke:#000000;stroke-width:1;"/><line style="stroke:#000000;stroke-width:1;" x1="639.5" x2="639.5" y1="485" y2="477"/><line style="stroke:#000000;stroke-width:1;" x1="642.5" x2="642.5" y1="485" y2="477"/><line style="stroke:#000000;stroke-width:1;" x1="643.5" x2="635.5" y1="481" y2="481"/><line style="stroke:#000000;stroke-width:1;" x1="805.5" x2="813.5" y1="575" y2="569"/><line style="stroke:#000000;stroke-width:1;" x1="805.5" x2="813.5" y1="575" y2="581"/><line style="stroke:#000000;stroke-width:1;" x1="805.5" x2="813.5" y1="575" y2="575"/><line style="stroke:#000000;stroke-width:1;" x1="803.5" x2="803.5" y1="571" y2="579"/></g><!--link person to country--><g class="link" data-entity-1="person" data-entity-2="country" data-source-line="142" data-uid="lnk17" id="link_person_country"><path codeLine="142" d="M668,357 C749.79,357 644.21,188.5 726,188.5" fill="none" id="person-country" style="stroke:#000000;stroke-width:1;"/><line style="stroke:#000000;stroke-width:1;" x1="668" x2="660" y1="357" y2="363"/><line style="stroke:#000000;stroke-width:1;" x1="668" x2="660" y1="357" y2="351"/><line style="stroke:#000000;stroke-width:1;" x1="668" x2="660" y1="357" y2="357"/><line style="stroke:#000000;stroke-width:1;" x1="670" x2="670" y1="361" y2="353"/><line style="stroke:#000000;stroke-width:1;" x1="730" x2="730" y1="184.5" y2="192.5"/><line style="stroke:#000000;stroke-width:1;" x1="727" x2="727" y1="184.5" y2="192.5"/><line style="stroke:#000000;stroke-width:1;" x1="726" x2="734" y1="188.5" y2="188.5"/></g><!--link person to gender--><g class="link" data-entity-1="person" data-entity-2="gender" data-source-line="143" data-uid="lnk18" id="link_person_gender"><path codeLine="143" d="M668,374 C707.56,374 701.44,374 741,374" fill="none" id="person-gender" style="stroke:#000000;stroke-width:1;"/><line style="stroke:#000000;stroke-width:1;" x1="668" x2="660" y1="374" y2="380"/><line style="stroke:#000000;stroke-width:1;" x1="668" x2="660" y1="374" y2="368"/><line style="stroke:#000000;stroke-width:1;" x1="668" x2="660" y1="374" y2="374"/><line style="stroke:#000000;stroke-width:1;" x1="670" x2="670" y1="378" y2="370"/><line style="stroke:#000000;stroke-width:1;" x1="745" x2="745" y1="370" y2="378"/><line style="stroke:#000000;stroke-width:1;" x1="742" x2="742" y1="370" y2="378"/><line style="stroke:#000000;stroke-width:1;" x1="741" x2="749" y1="374" y2="374"/></g><!--link cast_credit to movie--><g class="link" data-entity-1="cast_credit" data-entity-2="movie" data-source-line="164" data-uid="lnk21" id="link_cast_credit_movie"><path codeLine="164" d="M264,530.5 C313.09,530.5 272.91,612.5 322,612.5" fill="none" id="cast_credit-movie" style="stroke:#000000;stroke-width:1;"/><line style="stroke:#000000;stroke-width:1;" x1="264" x2="256" y1="530.5" y2="536.5"/><line style="stroke:#000000;stroke-width:1;" x1="264" x2="256" y1="530.5" y2="524.5"/><line style="stroke:#000000;stroke-width:1;" x1="264" x2="256" y1="530.5" y2="530.5"/><line style="stroke:#000000;stroke-width:1;" x1="266" x2="266" y1="534.5" y2="526.5"/><line style="stroke:#000000;stroke-width:1;" x1="326" x2="326" y1="608.5" y2="616.5"/><line style="stroke:#000000;stroke-width:1;" x1="323" x2="323" y1="608.5" y2="616.5"/><line style="stroke:#000000;stroke-width:1;" x1="322" x2="330" y1="612.5" y2="612.5"/></g><!--link cast_credit to person--><g class="link" data-entity-1="cast_credit" data-entity-2="person" data-source-line="165" data-uid="lnk22" id="link_cast_credit_person"><path codeLine="165" d="M264,547.5 C395.94,547.5 190.06,260 322,260" fill="none" id="cast_credit-person" style="stroke:#000000;stroke-width:1;"/><line style="stroke:#000000;stroke-width:1;" x1="264" x2="256" y1="547.5" y2="553.5"/><line style="stroke:#000000;stroke-width:1;" x1="264" x2="256" y1="547.5" y2="541.5"/><line style="stroke:#000000;stroke-width:1;" x1="264" x2="256" y1="547.5" y2="547.5"/><line style="stroke:#000000;stroke-width:1;" x1="266" x2="266" y1="551.5" y2="543.5"/><line style="stroke:#000000;stroke-width:1;" x1="326" x2="326" y1="256" y2="264"/><line style="stroke:#000000;stroke-width:1;" x1="323" x2="323" y1="256" y2="264"/><line style="stroke:#000000;stroke-width:1;" x1="322" x2="330" y1="260" y2="260"/></g><!--link cast_credit to job--><g class="link" data-entity-1="cast_credit" data-entity-2="job" data-source-line="166" data-uid="lnk23" id="link_cast_credit_job"><path codeLine="166" d="M264,563.5 C366.15,563.5 244.35,1012.5 346.5,1012.5" fill="none" id="cast_credit-job" style="stroke:#000000;stroke-width:1;"/><line style="stroke:#000000;stroke-width:1;" x1="264" x2="256" y1="563.5" y2="569.5"/><line style="stroke:#000000;stroke-width:1;" x1="264" x2="256" y1="563.5" y2="557.5"/><line style="stroke:#000000;stroke-width:1;" x1="264" x2="256" y1="563.5" y2="563.5"/><line style="stroke:#000000;stroke-width:1;" x1="266" x2="266" y1="567.5" y2="559.5"/><line style="stroke:#000000;stroke-width:1;" x1="350.5" x2="350.5" y1="1008.5" y2="1016.5"/><line style="stroke:#000000;stroke-width:1;" x1="347.5" x2="347.5" y1="1008.5" y2="1016.5"/><line style="stroke:#000000;stroke-width:1;" x1="346.5" x2="354.5" y1="1012.5" y2="1012.5"/></g><!--link crew_credit to movie--><g class="link" data-entity-1="crew_credit" data-entity-2="movie" data-source-line="176" data-uid="lnk25" id="link_crew_credit_movie"><path codeLine="176" d="M218,694.5 C282.6,694.5 257.4,612.5 322,612.5" fill="none" id="crew_credit-movie" style="stroke:#000000;stroke-width:1;"/><line style="stroke:#000000;stroke-width:1;" x1="218" x2="210" y1="694.5" y2="700.5"/><line style="stroke:#000000;stroke-width:1;" x1="218" x2="210" y1="694.5" y2="688.5"/><line style="stroke:#000000;stroke-width:1;" x1="218" x2="210" y1="694.5" y2="694.5"/><line style="stroke:#000000;stroke-width:1;" x1="220" x2="220" y1="698.5" y2="690.5"/><line style="stroke:#000000;stroke-width:1;" x1="326" x2="326" y1="608.5" y2="616.5"/><line style="stroke:#000000;stroke-width:1;" x1="323" x2="323" y1="608.5" y2="616.5"/><line style="stroke:#000000;stroke-width:1;" x1="322" x2="330" y1="612.5" y2="612.5"/></g><!--link crew_credit to person--><g class="link" data-entity-1="crew_credit" data-entity-2="person" data-source-line="177" data-uid="lnk26" id="link_crew_credit_person"><path codeLine="177" d="M218,710.5 C321.6,710.5 218.4,260 322,260" fill="none" id="crew_credit-person" style="stroke:#000000;stroke-width:1;"/><line style="stroke:#000000;stroke-width:1;" x1="218" x2="210" y1="710.5" y2="716.5"/><line style="stroke:#000000;stroke-width:1;" x1="218" x2="210" y1="710.5" y2="704.5"/><line style="stroke:#000000;stroke-width:1;" x1="218" x2="210" y1="710.5" y2="710.5"/><line style="stroke:#000000;stroke-width:1;" x1="220" x2="220" y1="714.5" y2="706.5"/><line style="stroke:#000000;stroke-width:1;" x1="326" x2="326" y1="256" y2="264"/><line style="stroke:#000000;stroke-width:1;" x1="323" x2="323" y1="256" y2="264"/><line style="stroke:#000000;stroke-width:1;" x1="322" x2="330" y1="260" y2="260"/></g><!--link crew_credit to job--><g class="link" data-entity-1="crew_credit" data-entity-2="job" data-source-line="178" data-uid="lnk27" id="link_crew_credit_job"><path codeLine="178" d="M218,727.5 C360.02,727.5 204.48,1012.5 346.5,1012.5" fill="none" id="crew_credit-job" style="stroke:#000000;stroke-width:1;"/><line style="stroke:#000000;stroke-width:1;" x1="218" x2="210" y1="727.5" y2="733.5"/><line style="stroke:#000000;stroke-width:1;" x1="218" x2="210" y1="727.5" y2="721.5"/><line style="stroke:#000000;stroke-width:1;" x1="218" x2="210" y1="727.5" y2="727.5"/><line style="stroke:#000000;stroke-width:1;" x1="220" x2="220" y1="731.5" y2="723.5"/><line style="stroke:#000000;stroke-width:1;" x1="350.5" x2="350.5" y1="1008.5" y2="1016.5"/><line style="stroke:#000000;stroke-width:1;" x1="347.5" x2="347.5" y1="1008.5" y2="1016.5"/><line style="stroke:#000000;stroke-width:1;" x1="346.5" x2="354.5" y1="1012.5" y2="1012.5"/></g><!--link company to country--><g class="link" data-entity-1="company" data-entity-2="country" data-source-line="190" data-uid="lnk29" id="link_company_country"><path codeLine="190" d="M643.5,151.5 C690.26,151.5 679.24,188.5 726,188.5" fill="none" id="company-country" style="stroke:#000000;stroke-width:1;"/><line style="stroke:#000000;stroke-width:1;" x1="643.5" x2="635.5" y1="151.5" y2="157.5"/><line style="stroke:#000000;stroke-width:1;" x1="643.5" x2="635.5" y1="151.5" y2="145.5"/><line style="stroke:#000000;stroke-width:1;" x1="643.5" x2="635.5" y1="151.5" y2="151.5"/><line style="stroke:#000000;stroke-width:1;" x1="645.5" x2="645.5" y1="155.5" y2="147.5"/><line style="stroke:#000000;stroke-width:1;" x1="730" x2="730" y1="184.5" y2="192.5"/><line style="stroke:#000000;stroke-width:1;" x1="727" x2="727" y1="184.5" y2="192.5"/><line style="stroke:#000000;stroke-width:1;" x1="726" x2="734" y1="188.5" y2="188.5"/></g><!--SRC=[lLZVKzj647ws_eeDpHGy8qhJpkJ1GvrniKbe3QHWQDyyP-biNv5qYdI2SGF_Ux-xq-aNO2PDfa_9xUr-k_fsRtVDAxNcCQSqOYBnrYBanEDKRIZcQYt3tFCYlbIa96LYjLOKYem7IiZ4yxnNQIO37XOPfzTv01YszpfXCVTnZ8fLtqjPSCDMd7QCU8TORc_eyF02A2nPHNmuz5xn9AoWsh2ABIBUGUM94WXmvt0nD1U71ujX2vlsPZwTPu3dVJ88jDtBhU1tN-xasgVHfuB5B1C976cG5_oaDzPBtpiCP2IpmNVlPHJov4A6myFlR_XcU7XWBeRKzBiDSla8yb94jpphuXcbRK3GA-B4WNrU2Xw53-H0_rmBnO4Pyr2mVPI0pC8Nm3tF5SNEgPJxrpHco0NBELqQyOvFiPJpstcuwDDdgE_Ic2z1PKwC01pPEYEvX1x8pRso6kexlw6dCNgQOH7s1tGvkJWPJRtU_Zw4vQUPBnlGzUZYwCFeWgxEJlwucj3P-OpEhgPJxw4JWd7gV9g3RsKlUqBfH4rNpaUlrplOfLCDGaQ7H48Jl0AHhtSFQdiM5f62_Q_dvzF9w8p6a-FHrNH6nwFfvSHWdEI4TslZ8QE-dp75mtVKn94e15sMZL1wFHl4vLfcghGFUHva8jKiFcKzlmN3CjCWawFPkS40mhMHYdzuMC8u_IQ6OlYuX3yHGCc2lM-QB8fmnStNdxm_EPlHqOV9qU-bb8RqOx-sBeKWyUfotCJ8-2rF2ju5ASK6XO0oauf5PVJkxWcm0ht0b4u3oSggUCO5w2-hjKuCi6AH50hrr8ukudW7yn0P0-fuD9jGYvLIWRH2ot8jOvwYezPyEZglBgRLIo6drh9DPQvuDY-og6rT6zU1MrqIiGE1qbaHBo23Nf7ZtrlP_ImjcGSIpBIegiKq_0Lq6R0HQaLZLr0j97QxcciXS8wdvoE7vCGDd8yoBI8qOBJg73s9_q379t-TJWOaSX8AHB8esi2B6GAvI0AknS5QpuRSL2pfFBxhCEL0Em7K5uqGx3k0gpJZESP6gmxo8iPysBYZ-LnK6bv9xlLwxpdAGz2QwNwpp3YdqSSJOaa8kpJ50yrfmLImXicdWkUgMqO6PmuVrTjilBmuNCnDXzAfw3Gx7VSCyTXognhptknqZ6QC9G3LZGcG6N-wiq7_6FIALK8OAteTQ7JekcuMF9B92hr9-YIM-9AD2HX3gbRNGQ7P6eF1e2MdX_lz_Vlx1lPW8C9cMpO4MbzecYhNL-XQYbYW2fDhjHR9ZKxo7VXRcof0j3bInFLTJd41Gf4FF2u6yxB1QpJVOAAzOnJiEeyhdY2l6cE1Jflde00T3yVsK39gljN-5gDebtuhaf9UKxmBhkuuJqgtfaXiQAqHDI_ZQ1niD4Y1bMdspT5SjfE13Dph37nksWy6pj0hpy-eES1clb0io4FuCd-bekyi_YyENO1j5gjeMiVdc2oljtDPAZNOh2JFgjR0ZzOZjDDiKsz4vkWx-LUJL-c9NCv_VlFsxVmDjBNgta_z5pSd54B8iyRBmCalfTzyJKjvbYF1uEb692kILNQnYeQ5pVuUqotQBt-ywF_TeOdheBWA-e2xJ7aWbXlJoRH_qpBMyWu2Xlr2xHhIMQu8dJx8iEZ7t4n3NKA9LFHtWJj6wo9cYVjm6vbVHlZ57-w-c4ppBQB8HbPEalApMukJGCDhBXLsk8_r4W4hSzsUSvbSYWYrgCTyPp5eRmMbPdiXwCxU_pf33GTuHZR-ieIhqMK_uj7mCKgTpx9D3KNMD7xAt6ffemVF4ZaOTBtNiyX8p21okfKNfsG5TbYrgZCtXIK2-bikw4xeuGHfYEqiKp6chAiLNFjQvzkztDh74pLbksEZd-ZIHbs7mcpJdHy_-dPkRtrg75uE5ejMXhS7hjfXctsoKSsLdluxn0RpmUqThMvhKcfbDXCT8VYh9GzU8zAwwxgCLLswhLRXEZsNygwYzUMqSEfkAY-IYYvIareVjf3wDLpK3hPoqLJRoaLJyHakscswxiQ1Z5DiXlNmCaVVoR_-2MXTit8-wYJRMmb-pQv4Ojk2LqQZDzHjBU5V]--></g></svg>