<svg xmlns="http://www.w3.org/2000/svg" xmlns:xlink="http://www.w3.org/1999/xlink" contentStyleType="text/css" data-diagram-type="CLASS" height="1230px" preserveAspectRatio="none" style="width:1257px;height:1230px;background:#FFFFFF;" version="1.1" viewBox="0 0 1257 1230" width="1257px" zoomAndPan="magnify"><defs/><g><!--cluster moo_v_db--><g class="cluster" data-entity="moo_v_db" data-source-line="8" data-uid="ent0002" id="cluster_moo_v_db"><rect fill="#FFFFFF" height="1212" rx="2.5" ry="2.5" style="stroke:#000000;stroke-width:1;" width="1239" x="12" y="12"/><text fill="#000000" font-family="Verdana" font-size="14" font-weight="bold" lengthAdjust="spacing" textLength="195.9453" x="533.5273" y="26.9951">Moo-V Database Schema</text></g><!--class collection--><g class="entity" data-entity="collection" data-source-line="12" data-uid="ent0003" id="entity_collection"><rect fill="#FFFFFF" height="88.8594" rx="2.5" ry="2.5" style="stroke:#000000;stroke-width:1;" width="279.8177" x="933" y="877"/><ellipse cx="1030.9665" cy="897.1328" fill="#FFA500" rx="9" ry="9" style="stroke:#000000;stroke-width:1;"/><path d="M1031.8102,903.8828 L1029.3571,903.8828 L1029.3571,893.6328 L1026.2165,893.6328 L1026.2165,891.4922 L1034.9508,891.4922 L1034.9508,893.6328 L1031.8102,893.6328 L1031.8102,903.8828 Z " fill="#000000"/><text fill="#000000" font-family="Verdana" font-size="12" font-style="italic" lengthAdjust="spacing" textLength="45.0762" x="1064.1208" y="893.1387">&#171;table&#187;</text><text fill="#000000" font-family="Verdana" font-size="14" font-weight="bold" lengthAdjust="spacing" textLength="76.3848" x="1048.4665" y="908.9639">collection</text><line style="stroke:#000000;stroke-width:1;" x1="934" x2="1211.8177" y1="917.2656" y2="917.2656"/><path d="M946.4167,924.7292 C944.8067,924.7292 943.5,926.0358 943.5,927.6458 C943.5,927.8325 943.5,928.0192 943.535,928.1942 L940,931.7292 L940,934.0625 L943.5,934.0625 L943.5,931.7292 L945.8333,931.7292 L945.8333,930.5625 L945.8683,930.5275 C946.0433,930.5625 946.23,930.5625 946.4167,930.5625 C948.0267,930.5625 949.3333,929.2558 949.3333,927.6458 C949.3333,926.0358 948.0267,924.7292 946.4167,924.7292 M947,925.8958 C947.6417,925.8958 948.1667,926.4208 948.1667,927.0625 C948.1667,927.7042 947.6417,928.2292 947,928.2292 C946.3583,928.2292 945.8333,927.7042 945.8333,927.0625 C945.8333,926.4208 946.3583,925.8958 947,925.8958" fill="#DAA520"/><text fill="#000000" font-family="Verdana" font-size="14" lengthAdjust="spacing" textLength="4.4502" x="950.3333" y="934.2607">&#160;</text><text fill="#000000" font-family="Verdana" font-size="14" font-weight="bold" lengthAdjust="spacing" textLength="14.8203" x="954.7835" y="934.2607">id</text><text fill="#000000" font-family="Verdana" font-size="14" lengthAdjust="spacing" textLength="58.1328" x="969.6038" y="934.2607">: SERIAL</text><line style="stroke:#000000;stroke-width:1;" x1="934" x2="1211.8177" y1="941.5625" y2="941.5625"/><path d="M944.6667,950.1927 C942.73,950.1927 941.1667,951.756 941.1667,953.6927 C941.1667,955.6294 942.73,957.1927 944.6667,957.1927 C946.6033,957.1927 948.1667,955.6294 948.1667,953.6927 C948.1667,951.756 946.6033,950.1927 944.6667,950.1927" fill="#FFFFFF"/><text fill="#000000" font-family="Verdana" font-size="14" lengthAdjust="spacing" textLength="252.0342" x="954.7835" y="958.5576">name: VARCHAR UNIQUE NOT NULL</text></g><!--class movie--><g class="entity" data-entity="movie" data-source-line="12" data-uid="ent0004" id="entity_movie"><rect fill="#FFFFFF" height="357.6094" rx="2.5" ry="2.5" style="stroke:#000000;stroke-width:1;" width="328.8997" x="514" y="584.5"/><ellipse cx="650.8869" cy="604.6328" fill="#FFA500" rx="9" ry="9" style="stroke:#000000;stroke-width:1;"/><path d="M651.7306,611.3828 L649.2775,611.3828 L649.2775,601.1328 L646.1369,601.1328 L646.1369,598.9922 L654.8713,598.9922 L654.8713,601.1328 L651.7306,601.1328 L651.7306,611.3828 Z " fill="#000000"/><text fill="#000000" font-family="Verdana" font-size="12" font-style="italic" lengthAdjust="spacing" textLength="45.0762" x="669.6618" y="600.6387">&#171;table&#187;</text><text fill="#000000" font-family="Verdana" font-size="14" font-weight="bold" lengthAdjust="spacing" textLength="47.626" x="668.3869" y="616.4639">movie</text><line style="stroke:#000000;stroke-width:1;" x1="515" x2="841.8997" y1="624.7656" y2="624.7656"/><path d="M527.4167,632.2292 C525.8067,632.2292 524.5,633.5358 524.5,635.1458 C524.5,635.3325 524.5,635.5192 524.535,635.6942 L521,639.2292 L521,641.5625 L524.5,641.5625 L524.5,639.2292 L526.8333,639.2292 L526.8333,638.0625 L526.8683,638.0275 C527.0433,638.0625 527.23,638.0625 527.4167,638.0625 C529.0267,638.0625 530.3333,636.7558 530.3333,635.1458 C530.3333,633.5358 529.0267,632.2292 527.4167,632.2292 M528,633.3958 C528.6417,633.3958 529.1667,633.9208 529.1667,634.5625 C529.1667,635.2042 528.6417,635.7292 528,635.7292 C527.3583,635.7292 526.8333,635.2042 526.8333,634.5625 C526.8333,633.9208 527.3583,633.3958 528,633.3958" fill="#DAA520"/><text fill="#000000" font-family="Verdana" font-size="14" lengthAdjust="spacing" textLength="4.4502" x="531.3333" y="641.7607">&#160;</text><text fill="#000000" font-family="Verdana" font-size="14" font-weight="bold" lengthAdjust="spacing" textLength="14.8203" x="535.7835" y="641.7607">id</text><text fill="#000000" font-family="Verdana" font-size="14" lengthAdjust="spacing" textLength="58.1328" x="550.6038" y="641.7607">: SERIAL</text><line style="stroke:#000000;stroke-width:1;" x1="515" x2="841.8997" y1="649.0625" y2="649.0625"/><path d="M525.6667,657.6927 C523.73,657.6927 522.1667,659.256 522.1667,661.1927 C522.1667,663.1294 523.73,664.6927 525.6667,664.6927 C527.6033,664.6927 529.1667,663.1294 529.1667,661.1927 C529.1667,659.256 527.6033,657.6927 525.6667,657.6927" fill="#FFFFFF"/><text fill="#000000" font-family="Verdana" font-size="14" lengthAdjust="spacing" textLength="180.291" x="535.7835" y="666.0576">title: VARCHAR NOT NULL</text><path d="M525.6667,673.9896 C523.73,673.9896 522.1667,675.5529 522.1667,677.4896 C522.1667,679.4263 523.73,680.9896 525.6667,680.9896 C527.6033,680.9896 529.1667,679.4263 529.1667,677.4896 C529.1667,675.5529 527.6033,673.9896 525.6667,673.9896" fill="#FFFFFF"/><text fill="#000000" font-family="Verdana" font-size="14" lengthAdjust="spacing" textLength="229.1406" x="535.7835" y="682.3545">adult: BOOLEAN DEFAULT FALSE</text><path d="M525.6667,690.2865 C523.73,690.2865 522.1667,691.8498 522.1667,693.7865 C522.1667,695.7231 523.73,697.2865 525.6667,697.2865 C527.6033,697.2865 529.1667,695.7231 529.1667,693.7865 C529.1667,691.8498 527.6033,690.2865 525.6667,690.2865" fill="#FFFFFF"/><text fill="#000000" font-family="Verdana" font-size="14" lengthAdjust="spacing" textLength="141.1143" x="535.7835" y="698.6514">overview: VARCHAR</text><path d="M525.6667,706.5833 C523.73,706.5833 522.1667,708.1467 522.1667,710.0833 C522.1667,712.02 523.73,713.5833 525.6667,713.5833 C527.6033,713.5833 529.1667,712.02 529.1667,710.0833 C529.1667,708.1467 527.6033,706.5833 525.6667,706.5833" fill="#FFFFFF"/><text fill="#000000" font-family="Verdana" font-size="14" lengthAdjust="spacing" textLength="181.5283" x="535.7835" y="714.9482">overview_vector: VECTOR</text><path d="M525.6667,722.8802 C523.73,722.8802 522.1667,724.4435 522.1667,726.3802 C522.1667,728.3169 523.73,729.8802 525.6667,729.8802 C527.6033,729.8802 529.1667,728.3169 529.1667,726.3802 C529.1667,724.4435 527.6033,722.8802 525.6667,722.8802" fill="#FFFFFF"/><text fill="#000000" font-family="Verdana" font-size="14" lengthAdjust="spacing" textLength="125.877" x="535.7835" y="731.2451">tagline: VARCHAR</text><path d="M525.6667,739.1771 C523.73,739.1771 522.1667,740.7404 522.1667,742.6771 C522.1667,744.6138 523.73,746.1771 525.6667,746.1771 C527.6033,746.1771 529.1667,744.6138 529.1667,742.6771 C529.1667,740.7404 527.6033,739.1771 525.6667,739.1771" fill="#FFFFFF"/><text fill="#000000" font-family="Verdana" font-size="14" lengthAdjust="spacing" textLength="249.1904" x="535.7835" y="747.542">budget: BIGINT CHECK(budget &gt; 0)</text><path d="M525.6667,755.474 C523.73,755.474 522.1667,757.0373 522.1667,758.974 C522.1667,760.9106 523.73,762.474 525.6667,762.474 C527.6033,762.474 529.1667,760.9106 529.1667,758.974 C529.1667,757.0373 527.6033,755.474 525.6667,755.474" fill="#FFFFFF"/><text fill="#000000" font-family="Verdana" font-size="14" lengthAdjust="spacing" textLength="265.1729" x="535.7835" y="763.8389">revenue: BIGINT CHECK(revenue &gt; 0)</text><path d="M525.6667,771.7708 C523.73,771.7708 522.1667,773.3342 522.1667,775.2708 C522.1667,777.2075 523.73,778.7708 525.6667,778.7708 C527.6033,778.7708 529.1667,777.2075 529.1667,775.2708 C529.1667,773.3342 527.6033,771.7708 525.6667,771.7708" fill="#FFFFFF"/><text fill="#000000" font-family="Verdana" font-size="14" lengthAdjust="spacing" textLength="235.6006" x="535.7835" y="780.1357">runtime: INT CHECK(runtime &gt; 0)</text><path d="M525.6667,788.0677 C523.73,788.0677 522.1667,789.631 522.1667,791.5677 C522.1667,793.5044 523.73,795.0677 525.6667,795.0677 C527.6033,795.0677 529.1667,793.5044 529.1667,791.5677 C529.1667,789.631 527.6033,788.0677 525.6667,788.0677" fill="#FFFFFF"/><text fill="#000000" font-family="Verdana" font-size="14" lengthAdjust="spacing" textLength="136.8486" x="535.7835" y="796.4326">release_date: DATE</text><path d="M525.6667,804.3646 C523.73,804.3646 522.1667,805.9279 522.1667,807.8646 C522.1667,809.8013 523.73,811.3646 525.6667,811.3646 C527.6033,811.3646 529.1667,809.8013 529.1667,807.8646 C529.1667,805.9279 527.6033,804.3646 525.6667,804.3646" fill="#FFFFFF"/><text fill="#000000" font-family="Verdana" font-size="14" lengthAdjust="spacing" textLength="152.3115" x="535.7835" y="812.7295">homepage: VARCHAR</text><path d="M525.6667,820.6615 C523.73,820.6615 522.1667,822.2248 522.1667,824.1615 C522.1667,826.0981 523.73,827.6615 525.6667,827.6615 C527.6033,827.6615 529.1667,826.0981 529.1667,824.1615 C529.1667,822.2248 527.6033,820.6615 525.6667,820.6615" fill="#FFFFFF"/><text fill="#000000" font-family="Verdana" font-size="14" lengthAdjust="spacing" textLength="147.7793" x="535.7835" y="829.0264">poster_url: VARCHAR</text><path d="M525.6667,836.9583 C523.73,836.9583 522.1667,838.5217 522.1667,840.4583 C522.1667,842.395 523.73,843.9583 525.6667,843.9583 C527.6033,843.9583 529.1667,842.395 529.1667,840.4583 C529.1667,838.5217 527.6033,836.9583 525.6667,836.9583" fill="#FFFFFF"/><text fill="#000000" font-family="Verdana" font-size="14" lengthAdjust="spacing" textLength="291.9697" x="535.7835" y="845.3232">vote_count: INT CHECK(vote_count &gt;= 0)</text><path d="M525.6667,853.2552 C523.73,853.2552 522.1667,854.8185 522.1667,856.7552 C522.1667,858.6919 523.73,860.2552 525.6667,860.2552 C527.6033,860.2552 529.1667,858.6919 529.1667,856.7552 C529.1667,854.8185 527.6033,853.2552 525.6667,853.2552" fill="#FFFFFF"/><text fill="#000000" font-family="Verdana" font-size="14" lengthAdjust="spacing" textLength="286.3232" x="535.7835" y="861.6201">avg_vote: FLOAT CHECK(avg_vote &gt;= 0)</text><path d="M525.6667,869.5521 C523.73,869.5521 522.1667,871.1154 522.1667,873.0521 C522.1667,874.9888 523.73,876.5521 525.6667,876.5521 C527.6033,876.5521 529.1667,874.9888 529.1667,873.0521 C529.1667,871.1154 527.6033,869.5521 525.6667,869.5521" fill="#FFFFFF"/><text fill="#000000" font-family="Verdana" font-size="14" lengthAdjust="spacing" textLength="301.1162" x="535.7835" y="877.917">popularity: FLOAT CHECK(popularity &gt;= 0)</text><path d="M525.6667,885.849 C523.73,885.849 522.1667,887.4123 522.1667,889.349 C522.1667,891.2856 523.73,892.849 525.6667,892.849 C527.6033,892.849 529.1667,891.2856 529.1667,889.349 C529.1667,887.4123 527.6033,885.849 525.6667,885.849" fill="#FFFFFF"/><text fill="#000000" font-family="Verdana" font-size="14" lengthAdjust="spacing" textLength="157.3701" x="535.7835" y="894.2139">reviews_sum: VECTOR</text><path d="M525.6667,902.1458 C523.73,902.1458 522.1667,903.7092 522.1667,905.6458 C522.1667,907.5825 523.73,909.1458 525.6667,909.1458 C527.6033,909.1458 529.1667,907.5825 529.1667,905.6458 C529.1667,903.7092 527.6033,902.1458 525.6667,902.1458" fill="#FFFFFF"/><text fill="#000000" font-family="Verdana" font-size="14" lengthAdjust="spacing" textLength="223.6719" x="535.7835" y="910.5107">tmdb_id: INT UNIQUE NOT NULL</text><line style="stroke:#000000;stroke-width:1;" x1="515" x2="841.8997" y1="917.8125" y2="917.8125"/><path d="M527.4167,925.276 C525.8067,925.276 524.5,926.5827 524.5,928.1927 C524.5,928.3794 524.5,928.566 524.535,928.741 L521,932.276 L521,934.6094 L524.5,934.6094 L524.5,932.276 L526.8333,932.276 L526.8333,931.1094 L526.8683,931.0744 C527.0433,931.1094 527.23,931.1094 527.4167,931.1094 C529.0267,931.1094 530.3333,929.8027 530.3333,928.1927 C530.3333,926.5827 529.0267,925.276 527.4167,925.276 M528,926.4427 C528.6417,926.4427 529.1667,926.9677 529.1667,927.6094 C529.1667,928.251 528.6417,928.776 528,928.776 C527.3583,928.776 526.8333,928.251 526.8333,927.6094 C526.8333,926.9677 527.3583,926.4427 528,926.4427" fill="#C0C0C0"/><text fill="#000000" font-family="Verdana" font-size="14" lengthAdjust="spacing" textLength="86.9463" x="535.7835" y="934.8076">collection_id</text></g><!--class genre--><g class="entity" data-entity="genre" data-source-line="12" data-uid="ent0006" id="entity_genre"><rect fill="#FFFFFF" height="88.8594" rx="2.5" ry="2.5" style="stroke:#000000;stroke-width:1;" width="279.8177" x="538.5" y="1116"/><ellipse cx="651.7174" cy="1136.1328" fill="#FFA500" rx="9" ry="9" style="stroke:#000000;stroke-width:1;"/><path d="M652.5612,1142.8828 L650.1081,1142.8828 L650.1081,1132.6328 L646.9674,1132.6328 L646.9674,1130.4922 L655.7018,1130.4922 L655.7018,1132.6328 L652.5612,1132.6328 L652.5612,1142.8828 Z " fill="#000000"/><text fill="#000000" font-family="Verdana" font-size="12" font-style="italic" lengthAdjust="spacing" textLength="45.0762" x="669.6208" y="1132.1387">&#171;table&#187;</text><text fill="#000000" font-family="Verdana" font-size="14" font-weight="bold" lengthAdjust="spacing" textLength="45.8828" x="669.2174" y="1147.9639">genre</text><line style="stroke:#000000;stroke-width:1;" x1="539.5" x2="817.3177" y1="1156.2656" y2="1156.2656"/><path d="M551.9167,1163.7292 C550.3067,1163.7292 549,1165.0358 549,1166.6458 C549,1166.8325 549,1167.0192 549.035,1167.1942 L545.5,1170.7292 L545.5,1173.0625 L549,1173.0625 L549,1170.7292 L551.3333,1170.7292 L551.3333,1169.5625 L551.3683,1169.5275 C551.5433,1169.5625 551.73,1169.5625 551.9167,1169.5625 C553.5267,1169.5625 554.8333,1168.2558 554.8333,1166.6458 C554.8333,1165.0358 553.5267,1163.7292 551.9167,1163.7292 M552.5,1164.8958 C553.1417,1164.8958 553.6667,1165.4208 553.6667,1166.0625 C553.6667,1166.7042 553.1417,1167.2292 552.5,1167.2292 C551.8583,1167.2292 551.3333,1166.7042 551.3333,1166.0625 C551.3333,1165.4208 551.8583,1164.8958 552.5,1164.8958" fill="#DAA520"/><text fill="#000000" font-family="Verdana" font-size="14" lengthAdjust="spacing" textLength="4.4502" x="555.8333" y="1173.2607">&#160;</text><text fill="#000000" font-family="Verdana" font-size="14" font-weight="bold" lengthAdjust="spacing" textLength="14.8203" x="560.2835" y="1173.2607">id</text><text fill="#000000" font-family="Verdana" font-size="14" lengthAdjust="spacing" textLength="58.1328" x="575.1038" y="1173.2607">: SERIAL</text><line style="stroke:#000000;stroke-width:1;" x1="539.5" x2="817.3177" y1="1180.5625" y2="1180.5625"/><path d="M550.1667,1189.1927 C548.23,1189.1927 546.6667,1190.756 546.6667,1192.6927 C546.6667,1194.6294 548.23,1196.1927 550.1667,1196.1927 C552.1033,1196.1927 553.6667,1194.6294 553.6667,1192.6927 C553.6667,1190.756 552.1033,1189.1927 550.1667,1189.1927" fill="#FFFFFF"/><text fill="#000000" font-family="Verdana" font-size="14" lengthAdjust="spacing" textLength="252.0342" x="560.2835" y="1197.5576">name: VARCHAR UNIQUE NOT NULL</text></g><!--class movie_genre--><g class="entity" data-entity="movie_genre" data-source-line="12" data-uid="ent0007" id="entity_movie_genre"><rect fill="#FFFFFF" height="105.1563" rx="2.5" ry="2.5" style="stroke:#000000;stroke-width:1;" width="222.9229" x="961.5" y="1053.5"/><ellipse cx="1018.957" cy="1073.6328" fill="#FFA500" rx="9" ry="9" style="stroke:#000000;stroke-width:1;"/><path d="M1019.8008,1080.3828 L1017.3477,1080.3828 L1017.3477,1070.1328 L1014.207,1070.1328 L1014.207,1067.9922 L1022.9414,1067.9922 L1022.9414,1070.1328 L1019.8008,1070.1328 L1019.8008,1080.3828 Z " fill="#000000"/><text fill="#000000" font-family="Verdana" font-size="12" font-style="italic" lengthAdjust="spacing" textLength="45.0762" x="1064.1733" y="1069.6387">&#171;table&#187;</text><text fill="#000000" font-family="Verdana" font-size="14" font-weight="bold" lengthAdjust="spacing" textLength="100.5088" x="1036.457" y="1085.4639">movie_genre</text><line style="stroke:#000000;stroke-width:1;" x1="962.5" x2="1183.4229" y1="1093.7656" y2="1093.7656"/><path d="M974.9167,1101.2292 C973.3067,1101.2292 972,1102.5358 972,1104.1458 C972,1104.3325 972,1104.5192 972.035,1104.6942 L968.5,1108.2292 L968.5,1110.5625 L972,1110.5625 L972,1108.2292 L974.3333,1108.2292 L974.3333,1107.0625 L974.3683,1107.0275 C974.5433,1107.0625 974.73,1107.0625 974.9167,1107.0625 C976.5267,1107.0625 977.8333,1105.7558 977.8333,1104.1458 C977.8333,1102.5358 976.5267,1101.2292 974.9167,1101.2292 M975.5,1102.3958 C976.1417,1102.3958 976.6667,1102.9208 976.6667,1103.5625 C976.6667,1104.2042 976.1417,1104.7292 975.5,1104.7292 C974.8583,1104.7292 974.3333,1104.2042 974.3333,1103.5625 C974.3333,1102.9208 974.8583,1102.3958 975.5,1102.3958" fill="#C0C0C0"/><text fill="#000000" font-family="Verdana" font-size="14" lengthAdjust="spacing" textLength="62.7676" x="983.2835" y="1110.7607">movie_id</text><path d="M974.9167,1117.526 C973.3067,1117.526 972,1118.8327 972,1120.4427 C972,1120.6294 972,1120.816 972.035,1120.991 L968.5,1124.526 L968.5,1126.8594 L972,1126.8594 L972,1124.526 L974.3333,1124.526 L974.3333,1123.3594 L974.3683,1123.3244 C974.5433,1123.3594 974.73,1123.3594 974.9167,1123.3594 C976.5267,1123.3594 977.8333,1122.0527 977.8333,1120.4427 C977.8333,1118.8327 976.5267,1117.526 974.9167,1117.526 M975.5,1118.6927 C976.1417,1118.6927 976.6667,1119.2177 976.6667,1119.8594 C976.6667,1120.501 976.1417,1121.026 975.5,1121.026 C974.8583,1121.026 974.3333,1120.501 974.3333,1119.8594 C974.3333,1119.2177 974.8583,1118.6927 975.5,1118.6927" fill="#C0C0C0"/><text fill="#000000" font-family="Verdana" font-size="14" lengthAdjust="spacing" textLength="60.5186" x="983.2835" y="1127.0576">genre_id</text><line style="stroke:#000000;stroke-width:1;" x1="962.5" x2="1183.4229" y1="1134.3594" y2="1134.3594"/><text fill="#C0C0C0" font-family="Verdana" font-size="14" lengthAdjust="spacing" textLength="8.4014" x="967.5" y="1151.3545">&#9939;</text><text fill="#000000" font-family="Verdana" font-size="14" lengthAdjust="spacing" textLength="198.0713" x="980.3516" y="1151.3545">UNIQUE(movie_id, genre_id)</text></g><!--class keyword--><g class="entity" data-entity="keyword" data-source-line="12" data-uid="ent0010" id="entity_keyword"><rect fill="#FFFFFF" height="88.8594" rx="2.5" ry="2.5" style="stroke:#000000;stroke-width:1;" width="279.8177" x="538.5" y="453"/><ellipse cx="640.9543" cy="473.1328" fill="#FFA500" rx="9" ry="9" style="stroke:#000000;stroke-width:1;"/><path d="M641.798,479.8828 L639.3449,479.8828 L639.3449,469.6328 L636.2043,469.6328 L636.2043,467.4922 L644.9386,467.4922 L644.9386,469.6328 L641.798,469.6328 L641.798,479.8828 Z " fill="#000000"/><text fill="#000000" font-family="Verdana" font-size="12" font-style="italic" lengthAdjust="spacing" textLength="45.0762" x="669.6208" y="469.1387">&#171;table&#187;</text><text fill="#000000" font-family="Verdana" font-size="14" font-weight="bold" lengthAdjust="spacing" textLength="67.4092" x="658.4543" y="484.9639">keyword</text><line style="stroke:#000000;stroke-width:1;" x1="539.5" x2="817.3177" y1="493.2656" y2="493.2656"/><path d="M551.9167,500.7292 C550.3067,500.7292 549,502.0358 549,503.6458 C549,503.8325 549,504.0192 549.035,504.1942 L545.5,507.7292 L545.5,510.0625 L549,510.0625 L549,507.7292 L551.3333,507.7292 L551.3333,506.5625 L551.3683,506.5275 C551.5433,506.5625 551.73,506.5625 551.9167,506.5625 C553.5267,506.5625 554.8333,505.2558 554.8333,503.6458 C554.8333,502.0358 553.5267,500.7292 551.9167,500.7292 M552.5,501.8958 C553.1417,501.8958 553.6667,502.4208 553.6667,503.0625 C553.6667,503.7042 553.1417,504.2292 552.5,504.2292 C551.8583,504.2292 551.3333,503.7042 551.3333,503.0625 C551.3333,502.4208 551.8583,501.8958 552.5,501.8958" fill="#DAA520"/><text fill="#000000" font-family="Verdana" font-size="14" lengthAdjust="spacing" textLength="4.4502" x="555.8333" y="510.2607">&#160;</text><text fill="#000000" font-family="Verdana" font-size="14" font-weight="bold" lengthAdjust="spacing" textLength="14.8203" x="560.2835" y="510.2607">id</text><text fill="#000000" font-family="Verdana" font-size="14" lengthAdjust="spacing" textLength="58.1328" x="575.1038" y="510.2607">: SERIAL</text><line style="stroke:#000000;stroke-width:1;" x1="539.5" x2="817.3177" y1="517.5625" y2="517.5625"/><path d="M550.1667,526.1927 C548.23,526.1927 546.6667,527.756 546.6667,529.6927 C546.6667,531.6294 548.23,533.1927 550.1667,533.1927 C552.1033,533.1927 553.6667,531.6294 553.6667,529.6927 C553.6667,527.756 552.1033,526.1927 550.1667,526.1927" fill="#FFFFFF"/><text fill="#000000" font-family="Verdana" font-size="14" lengthAdjust="spacing" textLength="252.0342" x="560.2835" y="534.5576">name: VARCHAR UNIQUE NOT NULL</text></g><!--class movie_keyword--><g class="entity" data-entity="movie_keyword" data-source-line="12" data-uid="ent0011" id="entity_movie_keyword"><rect fill="#FFFFFF" height="105.1563" rx="2.5" ry="2.5" style="stroke:#000000;stroke-width:1;" width="241.8447" x="952" y="519.5"/><ellipse cx="1008.1548" cy="539.6328" fill="#FFA500" rx="9" ry="9" style="stroke:#000000;stroke-width:1;"/><path d="M1008.9985,546.3828 L1006.5454,546.3828 L1006.5454,536.1328 L1003.4048,536.1328 L1003.4048,533.9922 L1012.1392,533.9922 L1012.1392,536.1328 L1008.9985,536.1328 L1008.9985,546.3828 Z " fill="#000000"/><text fill="#000000" font-family="Verdana" font-size="12" font-style="italic" lengthAdjust="spacing" textLength="45.0762" x="1064.1343" y="535.6387">&#171;table&#187;</text><text fill="#000000" font-family="Verdana" font-size="14" font-weight="bold" lengthAdjust="spacing" textLength="122.0352" x="1025.6548" y="551.4639">movie_keyword</text><line style="stroke:#000000;stroke-width:1;" x1="953" x2="1192.8447" y1="559.7656" y2="559.7656"/><path d="M965.4167,567.2292 C963.8067,567.2292 962.5,568.5358 962.5,570.1458 C962.5,570.3325 962.5,570.5192 962.535,570.6942 L959,574.2292 L959,576.5625 L962.5,576.5625 L962.5,574.2292 L964.8333,574.2292 L964.8333,573.0625 L964.8683,573.0275 C965.0433,573.0625 965.23,573.0625 965.4167,573.0625 C967.0267,573.0625 968.3333,571.7558 968.3333,570.1458 C968.3333,568.5358 967.0267,567.2292 965.4167,567.2292 M966,568.3958 C966.6417,568.3958 967.1667,568.9208 967.1667,569.5625 C967.1667,570.2042 966.6417,570.7292 966,570.7292 C965.3583,570.7292 964.8333,570.2042 964.8333,569.5625 C964.8333,568.9208 965.3583,568.3958 966,568.3958" fill="#C0C0C0"/><text fill="#000000" font-family="Verdana" font-size="14" lengthAdjust="spacing" textLength="62.7676" x="973.7835" y="576.7607">movie_id</text><path d="M965.4167,583.526 C963.8067,583.526 962.5,584.8327 962.5,586.4427 C962.5,586.6294 962.5,586.816 962.535,586.991 L959,590.526 L959,592.8594 L962.5,592.8594 L962.5,590.526 L964.8333,590.526 L964.8333,589.3594 L964.8683,589.3244 C965.0433,589.3594 965.23,589.3594 965.4167,589.3594 C967.0267,589.3594 968.3333,588.0527 968.3333,586.4427 C968.3333,584.8327 967.0267,583.526 965.4167,583.526 M966,584.6927 C966.6417,584.6927 967.1667,585.2177 967.1667,585.8594 C967.1667,586.501 966.6417,587.026 966,587.026 C965.3583,587.026 964.8333,586.501 964.8333,585.8594 C964.8333,585.2177 965.3583,584.6927 966,584.6927" fill="#C0C0C0"/><text fill="#000000" font-family="Verdana" font-size="14" lengthAdjust="spacing" textLength="79.4404" x="973.7835" y="593.0576">keyword_id</text><line style="stroke:#000000;stroke-width:1;" x1="953" x2="1192.8447" y1="600.3594" y2="600.3594"/><text fill="#C0C0C0" font-family="Verdana" font-size="14" lengthAdjust="spacing" textLength="8.4014" x="958" y="617.3545">&#9939;</text><text fill="#000000" font-family="Verdana" font-size="14" lengthAdjust="spacing" textLength="216.9932" x="970.8516" y="617.3545">UNIQUE(movie_id, keyword_id)</text></g><!--class country--><g class="entity" data-entity="country" data-source-line="12" data-uid="ent0014" id="entity_country"><rect fill="#FFFFFF" height="105.1563" rx="2.5" ry="2.5" style="stroke:#000000;stroke-width:1;" width="309.349" x="918" y="136.5"/><ellipse cx="1038.6379" cy="156.6328" fill="#FFA500" rx="9" ry="9" style="stroke:#000000;stroke-width:1;"/><path d="M1039.4816,163.3828 L1037.0285,163.3828 L1037.0285,153.1328 L1033.8879,153.1328 L1033.8879,150.9922 L1042.6222,150.9922 L1042.6222,153.1328 L1039.4816,153.1328 L1039.4816,163.3828 Z " fill="#000000"/><text fill="#000000" font-family="Verdana" font-size="12" font-style="italic" lengthAdjust="spacing" textLength="45.0762" x="1063.8864" y="152.6387">&#171;table&#187;</text><text fill="#000000" font-family="Verdana" font-size="14" font-weight="bold" lengthAdjust="spacing" textLength="60.5732" x="1056.1379" y="168.4639">country</text><line style="stroke:#000000;stroke-width:1;" x1="919" x2="1226.349" y1="176.7656" y2="176.7656"/><path d="M931.4167,184.2292 C929.8067,184.2292 928.5,185.5358 928.5,187.1458 C928.5,187.3325 928.5,187.5192 928.535,187.6942 L925,191.2292 L925,193.5625 L928.5,193.5625 L928.5,191.2292 L930.8333,191.2292 L930.8333,190.0625 L930.8683,190.0275 C931.0433,190.0625 931.23,190.0625 931.4167,190.0625 C933.0267,190.0625 934.3333,188.7558 934.3333,187.1458 C934.3333,185.5358 933.0267,184.2292 931.4167,184.2292 M932,185.3958 C932.6417,185.3958 933.1667,185.9208 933.1667,186.5625 C933.1667,187.2042 932.6417,187.7292 932,187.7292 C931.3583,187.7292 930.8333,187.2042 930.8333,186.5625 C930.8333,185.9208 931.3583,185.3958 932,185.3958" fill="#DAA520"/><text fill="#000000" font-family="Verdana" font-size="14" lengthAdjust="spacing" textLength="4.4502" x="935.3333" y="193.7607">&#160;</text><text fill="#000000" font-family="Verdana" font-size="14" font-weight="bold" lengthAdjust="spacing" textLength="14.8203" x="939.7835" y="193.7607">id</text><text fill="#000000" font-family="Verdana" font-size="14" lengthAdjust="spacing" textLength="58.1328" x="954.6038" y="193.7607">: SERIAL</text><line style="stroke:#000000;stroke-width:1;" x1="919" x2="1226.349" y1="201.0625" y2="201.0625"/><path d="M929.6667,209.6927 C927.73,209.6927 926.1667,211.256 926.1667,213.1927 C926.1667,215.1294 927.73,216.6927 929.6667,216.6927 C931.6033,216.6927 933.1667,215.1294 933.1667,213.1927 C933.1667,211.256 931.6033,209.6927 929.6667,209.6927" fill="#FFFFFF"/><text fill="#000000" font-family="Verdana" font-size="14" lengthAdjust="spacing" textLength="252.0342" x="939.7835" y="218.0576">name: VARCHAR UNIQUE NOT NULL</text><path d="M929.6667,225.9896 C927.73,225.9896 926.1667,227.5529 926.1667,229.4896 C926.1667,231.4263 927.73,232.9896 929.6667,232.9896 C931.6033,232.9896 933.1667,231.4263 933.1667,229.4896 C933.1667,227.5529 931.6033,225.9896 929.6667,225.9896" fill="#FFFFFF"/><text fill="#000000" font-family="Verdana" font-size="14" lengthAdjust="spacing" textLength="281.5654" x="939.7835" y="234.3545">iso_3166_1: CHAR(2) UNIQUE NOT NULL</text></g><!--class gender--><g class="entity" data-entity="gender" data-source-line="12" data-uid="ent0015" id="entity_gender"><rect fill="#FFFFFF" height="88.8594" rx="2.5" ry="2.5" style="stroke:#000000;stroke-width:1;" width="279.8177" x="933" y="322"/><ellipse cx="1041.2067" cy="342.1328" fill="#FFA500" rx="9" ry="9" style="stroke:#000000;stroke-width:1;"/><path d="M1042.0505,348.8828 L1039.5973,348.8828 L1039.5973,338.6328 L1036.4567,338.6328 L1036.4567,336.4922 L1045.1911,336.4922 L1045.1911,338.6328 L1042.0505,338.6328 L1042.0505,348.8828 Z " fill="#000000"/><text fill="#000000" font-family="Verdana" font-size="12" font-style="italic" lengthAdjust="spacing" textLength="45.0762" x="1064.1208" y="338.1387">&#171;table&#187;</text><text fill="#000000" font-family="Verdana" font-size="14" font-weight="bold" lengthAdjust="spacing" textLength="55.9043" x="1058.7067" y="353.9639">gender</text><line style="stroke:#000000;stroke-width:1;" x1="934" x2="1211.8177" y1="362.2656" y2="362.2656"/><path d="M946.4167,369.7292 C944.8067,369.7292 943.5,371.0358 943.5,372.6458 C943.5,372.8325 943.5,373.0192 943.535,373.1942 L940,376.7292 L940,379.0625 L943.5,379.0625 L943.5,376.7292 L945.8333,376.7292 L945.8333,375.5625 L945.8683,375.5275 C946.0433,375.5625 946.23,375.5625 946.4167,375.5625 C948.0267,375.5625 949.3333,374.2558 949.3333,372.6458 C949.3333,371.0358 948.0267,369.7292 946.4167,369.7292 M947,370.8958 C947.6417,370.8958 948.1667,371.4208 948.1667,372.0625 C948.1667,372.7042 947.6417,373.2292 947,373.2292 C946.3583,373.2292 945.8333,372.7042 945.8333,372.0625 C945.8333,371.4208 946.3583,370.8958 947,370.8958" fill="#DAA520"/><text fill="#000000" font-family="Verdana" font-size="14" lengthAdjust="spacing" textLength="4.4502" x="950.3333" y="379.2607">&#160;</text><text fill="#000000" font-family="Verdana" font-size="14" font-weight="bold" lengthAdjust="spacing" textLength="14.8203" x="954.7835" y="379.2607">id</text><text fill="#000000" font-family="Verdana" font-size="14" lengthAdjust="spacing" textLength="58.1328" x="969.6038" y="379.2607">: SERIAL</text><line style="stroke:#000000;stroke-width:1;" x1="934" x2="1211.8177" y1="386.5625" y2="386.5625"/><path d="M944.6667,395.1927 C942.73,395.1927 941.1667,396.756 941.1667,398.6927 C941.1667,400.6294 942.73,402.1927 944.6667,402.1927 C946.6033,402.1927 948.1667,400.6294 948.1667,398.6927 C948.1667,396.756 946.6033,395.1927 944.6667,395.1927" fill="#FFFFFF"/><text fill="#000000" font-family="Verdana" font-size="14" lengthAdjust="spacing" textLength="252.0342" x="954.7835" y="403.5576">name: VARCHAR UNIQUE NOT NULL</text></g><!--class person--><g class="entity" data-entity="person" data-source-line="12" data-uid="ent0016" id="entity_person"><rect fill="#FFFFFF" height="202.6406" rx="2.5" ry="2.5" style="stroke:#000000;stroke-width:1;" width="328.8997" x="514" y="208"/><ellipse cx="647.5304" cy="228.1328" fill="#FFA500" rx="9" ry="9" style="stroke:#000000;stroke-width:1;"/><path d="M648.3742,234.8828 L645.9211,234.8828 L645.9211,224.6328 L642.7804,224.6328 L642.7804,222.4922 L651.5148,222.4922 L651.5148,224.6328 L648.3742,224.6328 L648.3742,234.8828 Z " fill="#000000"/><text fill="#000000" font-family="Verdana" font-size="12" font-style="italic" lengthAdjust="spacing" textLength="45.0762" x="669.6618" y="224.1387">&#171;table&#187;</text><text fill="#000000" font-family="Verdana" font-size="14" font-weight="bold" lengthAdjust="spacing" textLength="54.3389" x="665.0304" y="239.9639">person</text><line style="stroke:#000000;stroke-width:1;" x1="515" x2="841.8997" y1="248.2656" y2="248.2656"/><path d="M527.4167,255.7292 C525.8067,255.7292 524.5,257.0358 524.5,258.6458 C524.5,258.8325 524.5,259.0192 524.535,259.1942 L521,262.7292 L521,265.0625 L524.5,265.0625 L524.5,262.7292 L526.8333,262.7292 L526.8333,261.5625 L526.8683,261.5275 C527.0433,261.5625 527.23,261.5625 527.4167,261.5625 C529.0267,261.5625 530.3333,260.2558 530.3333,258.6458 C530.3333,257.0358 529.0267,255.7292 527.4167,255.7292 M528,256.8958 C528.6417,256.8958 529.1667,257.4208 529.1667,258.0625 C529.1667,258.7042 528.6417,259.2292 528,259.2292 C527.3583,259.2292 526.8333,258.7042 526.8333,258.0625 C526.8333,257.4208 527.3583,256.8958 528,256.8958" fill="#DAA520"/><text fill="#000000" font-family="Verdana" font-size="14" lengthAdjust="spacing" textLength="4.4502" x="531.3333" y="265.2607">&#160;</text><text fill="#000000" font-family="Verdana" font-size="14" font-weight="bold" lengthAdjust="spacing" textLength="14.8203" x="535.7835" y="265.2607">id</text><text fill="#000000" font-family="Verdana" font-size="14" lengthAdjust="spacing" textLength="58.1328" x="550.6038" y="265.2607">: SERIAL</text><line style="stroke:#000000;stroke-width:1;" x1="515" x2="841.8997" y1="272.5625" y2="272.5625"/><path d="M525.6667,281.1927 C523.73,281.1927 522.1667,282.756 522.1667,284.6927 C522.1667,286.6294 523.73,288.1927 525.6667,288.1927 C527.6033,288.1927 529.1667,286.6294 529.1667,284.6927 C529.1667,282.756 527.6033,281.1927 525.6667,281.1927" fill="#FFFFFF"/><text fill="#000000" font-family="Verdana" font-size="14" lengthAdjust="spacing" textLength="192.623" x="535.7835" y="289.5576">name: VARCHAR NOT NULL</text><path d="M525.6667,297.4896 C523.73,297.4896 522.1667,299.0529 522.1667,300.9896 C522.1667,302.9263 523.73,304.4896 525.6667,304.4896 C527.6033,304.4896 529.1667,302.9263 529.1667,300.9896 C529.1667,299.0529 527.6033,297.4896 525.6667,297.4896" fill="#FFFFFF"/><text fill="#000000" font-family="Verdana" font-size="14" lengthAdjust="spacing" textLength="118.3848" x="535.7835" y="305.8545">birth_date: DATE</text><path d="M525.6667,313.7865 C523.73,313.7865 522.1667,315.3498 522.1667,317.2865 C522.1667,319.2231 523.73,320.7865 525.6667,320.7865 C527.6033,320.7865 529.1667,319.2231 529.1667,317.2865 C529.1667,315.3498 527.6033,313.7865 525.6667,313.7865" fill="#FFFFFF"/><text fill="#000000" font-family="Verdana" font-size="14" lengthAdjust="spacing" textLength="198.3105" x="535.7835" y="322.1514">profile_image_url: VARCHAR</text><path d="M525.6667,330.0833 C523.73,330.0833 522.1667,331.6467 522.1667,333.5833 C522.1667,335.52 523.73,337.0833 525.6667,337.0833 C527.6033,337.0833 529.1667,335.52 529.1667,333.5833 C529.1667,331.6467 527.6033,330.0833 525.6667,330.0833" fill="#FFFFFF"/><text fill="#000000" font-family="Verdana" font-size="14" lengthAdjust="spacing" textLength="301.1162" x="535.7835" y="338.4482">popularity: FLOAT CHECK(popularity &gt;= 0)</text><line style="stroke:#000000;stroke-width:1;" x1="515" x2="841.8997" y1="345.75" y2="345.75"/><path d="M527.4167,353.2135 C525.8067,353.2135 524.5,354.5202 524.5,356.1302 C524.5,356.3169 524.5,356.5035 524.535,356.6785 L521,360.2135 L521,362.5469 L524.5,362.5469 L524.5,360.2135 L526.8333,360.2135 L526.8333,359.0469 L526.8683,359.0119 C527.0433,359.0469 527.23,359.0469 527.4167,359.0469 C529.0267,359.0469 530.3333,357.7402 530.3333,356.1302 C530.3333,354.5202 529.0267,353.2135 527.4167,353.2135 M528,354.3802 C528.6417,354.3802 529.1667,354.9052 529.1667,355.5469 C529.1667,356.1885 528.6417,356.7135 528,356.7135 C527.3583,356.7135 526.8333,356.1885 526.8333,355.5469 C526.8333,354.9052 527.3583,354.3802 528,354.3802" fill="#C0C0C0"/><text fill="#000000" font-family="Verdana" font-size="14" lengthAdjust="spacing" textLength="145.5303" x="535.7835" y="362.7451">birth_country_id: INT</text><path d="M527.4167,369.5104 C525.8067,369.5104 524.5,370.8171 524.5,372.4271 C524.5,372.6138 524.5,372.8004 524.535,372.9754 L521,376.5104 L521,378.8437 L524.5,378.8437 L524.5,376.5104 L526.8333,376.5104 L526.8333,375.3437 L526.8683,375.3088 C527.0433,375.3437 527.23,375.3437 527.4167,375.3437 C529.0267,375.3437 530.3333,374.0371 530.3333,372.4271 C530.3333,370.8171 529.0267,369.5104 527.4167,369.5104 M528,370.6771 C528.6417,370.6771 529.1667,371.2021 529.1667,371.8437 C529.1667,372.4854 528.6417,373.0104 528,373.0104 C527.3583,373.0104 526.8333,372.4854 526.8333,371.8437 C526.8333,371.2021 527.3583,370.6771 528,370.6771" fill="#C0C0C0"/><text fill="#000000" font-family="Verdana" font-size="14" lengthAdjust="spacing" textLength="176.9893" x="535.7835" y="379.042">gender_id: INT NOT NULL</text><line style="stroke:#000000;stroke-width:1;" x1="515" x2="841.8997" y1="386.3438" y2="386.3438"/><text fill="#C0C0C0" font-family="Verdana" font-size="14" lengthAdjust="spacing" textLength="8.4014" x="520" y="403.3389">&#9939;</text><text fill="#000000" font-family="Verdana" font-size="14" lengthAdjust="spacing" textLength="185.9512" x="532.8516" y="403.3389">UNIQUE(name, birth_date)</text></g><!--class job--><g class="entity" data-entity="job" data-source-line="12" data-uid="ent0019" id="entity_job"><rect fill="#FFFFFF" height="88.8594" rx="2.5" ry="2.5" style="stroke:#000000;stroke-width:1;" width="279.8177" x="538.5" y="985"/><ellipse cx="654.1208" cy="1005.1328" fill="#FFA500" rx="9" ry="9" style="stroke:#000000;stroke-width:1;"/><path d="M654.9645,1011.8828 L652.5114,1011.8828 L652.5114,1001.6328 L649.3708,1001.6328 L649.3708,999.4922 L658.1051,999.4922 L658.1051,1001.6328 L654.9645,1001.6328 L654.9645,1011.8828 Z " fill="#000000"/><text fill="#000000" font-family="Verdana" font-size="12" font-style="italic" lengthAdjust="spacing" textLength="45.0762" x="669.6208" y="1001.1387">&#171;table&#187;</text><text fill="#000000" font-family="Verdana" font-size="14" font-weight="bold" lengthAdjust="spacing" textLength="24.4385" x="679.9396" y="1016.9639">job</text><line style="stroke:#000000;stroke-width:1;" x1="539.5" x2="817.3177" y1="1025.2656" y2="1025.2656"/><path d="M551.9167,1032.7292 C550.3067,1032.7292 549,1034.0358 549,1035.6458 C549,1035.8325 549,1036.0192 549.035,1036.1942 L545.5,1039.7292 L545.5,1042.0625 L549,1042.0625 L549,1039.7292 L551.3333,1039.7292 L551.3333,1038.5625 L551.3683,1038.5275 C551.5433,1038.5625 551.73,1038.5625 551.9167,1038.5625 C553.5267,1038.5625 554.8333,1037.2558 554.8333,1035.6458 C554.8333,1034.0358 553.5267,1032.7292 551.9167,1032.7292 M552.5,1033.8958 C553.1417,1033.8958 553.6667,1034.4208 553.6667,1035.0625 C553.6667,1035.7042 553.1417,1036.2292 552.5,1036.2292 C551.8583,1036.2292 551.3333,1035.7042 551.3333,1035.0625 C551.3333,1034.4208 551.8583,1033.8958 552.5,1033.8958" fill="#DAA520"/><text fill="#000000" font-family="Verdana" font-size="14" lengthAdjust="spacing" textLength="4.4502" x="555.8333" y="1042.2607">&#160;</text><text fill="#000000" font-family="Verdana" font-size="14" font-weight="bold" lengthAdjust="spacing" textLength="14.8203" x="560.2835" y="1042.2607">id</text><text fill="#000000" font-family="Verdana" font-size="14" lengthAdjust="spacing" textLength="58.1328" x="575.1038" y="1042.2607">: SERIAL</text><line style="stroke:#000000;stroke-width:1;" x1="539.5" x2="817.3177" y1="1049.5625" y2="1049.5625"/><path d="M550.1667,1058.1927 C548.23,1058.1927 546.6667,1059.756 546.6667,1061.6927 C546.6667,1063.6294 548.23,1065.1927 550.1667,1065.1927 C552.1033,1065.1927 553.6667,1063.6294 553.6667,1061.6927 C553.6667,1059.756 552.1033,1058.1927 550.1667,1058.1927" fill="#FFFFFF"/><text fill="#000000" font-family="Verdana" font-size="14" lengthAdjust="spacing" textLength="252.0342" x="560.2835" y="1066.5576">name: VARCHAR UNIQUE NOT NULL</text></g><!--class cast_credit--><g class="entity" data-entity="cast_credit" data-source-line="12" data-uid="ent0020" id="entity_cast_credit"><rect fill="#FFFFFF" height="170.0469" rx="2.5" ry="2.5" style="stroke:#000000;stroke-width:1;" width="402.8311" x="36" y="442"/><ellipse cx="190.6743" cy="462.1328" fill="#FFA500" rx="9" ry="9" style="stroke:#000000;stroke-width:1;"/><path d="M191.5181,468.8828 L189.0649,468.8828 L189.0649,458.6328 L185.9243,458.6328 L185.9243,456.4922 L194.6587,456.4922 L194.6587,458.6328 L191.5181,458.6328 L191.5181,468.8828 Z " fill="#000000"/><text fill="#000000" font-family="Verdana" font-size="12" font-style="italic" lengthAdjust="spacing" textLength="45.0762" x="228.6274" y="458.1387">&#171;table&#187;</text><text fill="#000000" font-family="Verdana" font-size="14" font-weight="bold" lengthAdjust="spacing" textLength="85.9824" x="208.1743" y="473.9639">cast_credit</text><line style="stroke:#000000;stroke-width:1;" x1="37" x2="437.8311" y1="482.2656" y2="482.2656"/><path d="M49.4167,489.7292 C47.8067,489.7292 46.5,491.0358 46.5,492.6458 C46.5,492.8325 46.5,493.0192 46.535,493.1942 L43,496.7292 L43,499.0625 L46.5,499.0625 L46.5,496.7292 L48.8333,496.7292 L48.8333,495.5625 L48.8683,495.5275 C49.0433,495.5625 49.23,495.5625 49.4167,495.5625 C51.0267,495.5625 52.3333,494.2558 52.3333,492.6458 C52.3333,491.0358 51.0267,489.7292 49.4167,489.7292 M50,490.8958 C50.6417,490.8958 51.1667,491.4208 51.1667,492.0625 C51.1667,492.7042 50.6417,493.2292 50,493.2292 C49.3583,493.2292 48.8333,492.7042 48.8333,492.0625 C48.8333,491.4208 49.3583,490.8958 50,490.8958" fill="#DAA520"/><text fill="#000000" font-family="Verdana" font-size="14" lengthAdjust="spacing" textLength="4.4502" x="53.3333" y="499.2607">&#160;</text><text fill="#000000" font-family="Verdana" font-size="14" font-weight="bold" lengthAdjust="spacing" textLength="14.8203" x="57.7835" y="499.2607">id</text><text fill="#000000" font-family="Verdana" font-size="14" lengthAdjust="spacing" textLength="58.1328" x="72.6038" y="499.2607">: SERIAL</text><line style="stroke:#000000;stroke-width:1;" x1="37" x2="437.8311" y1="506.5625" y2="506.5625"/><path d="M47.6667,515.1927 C45.73,515.1927 44.1667,516.756 44.1667,518.6927 C44.1667,520.6294 45.73,522.1927 47.6667,522.1927 C49.6033,522.1927 51.1667,520.6294 51.1667,518.6927 C51.1667,516.756 49.6033,515.1927 47.6667,515.1927" fill="#FFFFFF"/><text fill="#000000" font-family="Verdana" font-size="14" lengthAdjust="spacing" textLength="191.3994" x="57.7835" y="523.5576">character_name: VARCHAR</text><line style="stroke:#000000;stroke-width:1;" x1="37" x2="437.8311" y1="530.8594" y2="530.8594"/><path d="M49.4167,538.3229 C47.8067,538.3229 46.5,539.6296 46.5,541.2396 C46.5,541.4263 46.5,541.6129 46.535,541.7879 L43,545.3229 L43,547.6563 L46.5,547.6563 L46.5,545.3229 L48.8333,545.3229 L48.8333,544.1563 L48.8683,544.1212 C49.0433,544.1563 49.23,544.1563 49.4167,544.1563 C51.0267,544.1563 52.3333,542.8496 52.3333,541.2396 C52.3333,539.6296 51.0267,538.3229 49.4167,538.3229 M50,539.4896 C50.6417,539.4896 51.1667,540.0146 51.1667,540.6563 C51.1667,541.2979 50.6417,541.8229 50,541.8229 C49.3583,541.8229 48.8333,541.2979 48.8333,540.6563 C48.8333,540.0146 49.3583,539.4896 50,539.4896" fill="#C0C0C0"/><text fill="#000000" font-family="Verdana" font-size="14" lengthAdjust="spacing" textLength="95.0879" x="57.7835" y="547.8545">movie_id: INT</text><path d="M49.4167,554.6198 C47.8067,554.6198 46.5,555.9265 46.5,557.5365 C46.5,557.7231 46.5,557.9098 46.535,558.0848 L43,561.6198 L43,563.9531 L46.5,563.9531 L46.5,561.6198 L48.8333,561.6198 L48.8333,560.4531 L48.8683,560.4181 C49.0433,560.4531 49.23,560.4531 49.4167,560.4531 C51.0267,560.4531 52.3333,559.1465 52.3333,557.5365 C52.3333,555.9265 51.0267,554.6198 49.4167,554.6198 M50,555.7865 C50.6417,555.7865 51.1667,556.3115 51.1667,556.9531 C51.1667,557.5948 50.6417,558.1198 50,558.1198 C49.3583,558.1198 48.8333,557.5948 48.8333,556.9531 C48.8333,556.3115 49.3583,555.7865 50,555.7865" fill="#C0C0C0"/><text fill="#000000" font-family="Verdana" font-size="14" lengthAdjust="spacing" textLength="100.085" x="57.7835" y="564.1514">person_id: INT</text><path d="M49.4167,570.9167 C47.8067,570.9167 46.5,572.2233 46.5,573.8333 C46.5,574.02 46.5,574.2067 46.535,574.3817 L43,577.9167 L43,580.25 L46.5,580.25 L46.5,577.9167 L48.8333,577.9167 L48.8333,576.75 L48.8683,576.715 C49.0433,576.75 49.23,576.75 49.4167,576.75 C51.0267,576.75 52.3333,575.4433 52.3333,573.8333 C52.3333,572.2233 51.0267,570.9167 49.4167,570.9167 M50,572.0833 C50.6417,572.0833 51.1667,572.6083 51.1667,573.25 C51.1667,573.8917 50.6417,574.4167 50,574.4167 C49.3583,574.4167 48.8333,573.8917 48.8333,573.25 C48.8333,572.6083 49.3583,572.0833 50,572.0833" fill="#C0C0C0"/><text fill="#000000" font-family="Verdana" font-size="14" lengthAdjust="spacing" textLength="73.4385" x="57.7835" y="580.4482">job_id: INT</text><line style="stroke:#000000;stroke-width:1;" x1="37" x2="437.8311" y1="587.75" y2="587.75"/><text fill="#C0C0C0" font-family="Verdana" font-size="14" lengthAdjust="spacing" textLength="8.4014" x="42" y="604.7451">&#9939;</text><text fill="#000000" font-family="Verdana" font-size="14" lengthAdjust="spacing" textLength="377.9795" x="54.8516" y="604.7451">UNIQUE(movie_id, person_id, job_id, character_name)</text></g><!--class crew_credit--><g class="entity" data-entity="crew_credit" data-source-line="12" data-uid="ent0024" id="entity_crew_credit"><rect fill="#FFFFFF" height="145.75" rx="2.5" ry="2.5" style="stroke:#000000;stroke-width:1;" width="280.1875" x="97" y="655.5"/><ellipse cx="187.9224" cy="675.6328" fill="#FFA500" rx="9" ry="9" style="stroke:#000000;stroke-width:1;"/><path d="M188.7661,682.3828 L186.313,682.3828 L186.313,672.1328 L183.1724,672.1328 L183.1724,669.9922 L191.9067,669.9922 L191.9067,672.1328 L188.7661,672.1328 L188.7661,682.3828 Z " fill="#000000"/><text fill="#000000" font-family="Verdana" font-size="12" font-style="italic" lengthAdjust="spacing" textLength="45.0762" x="228.3057" y="671.6387">&#171;table&#187;</text><text fill="#000000" font-family="Verdana" font-size="14" font-weight="bold" lengthAdjust="spacing" textLength="90.8428" x="205.4224" y="687.4639">crew_credit</text><line style="stroke:#000000;stroke-width:1;" x1="98" x2="376.1875" y1="695.7656" y2="695.7656"/><path d="M110.4167,703.2292 C108.8067,703.2292 107.5,704.5358 107.5,706.1458 C107.5,706.3325 107.5,706.5192 107.535,706.6942 L104,710.2292 L104,712.5625 L107.5,712.5625 L107.5,710.2292 L109.8333,710.2292 L109.8333,709.0625 L109.8683,709.0275 C110.0433,709.0625 110.23,709.0625 110.4167,709.0625 C112.0267,709.0625 113.3333,707.7558 113.3333,706.1458 C113.3333,704.5358 112.0267,703.2292 110.4167,703.2292 M111,704.3958 C111.6417,704.3958 112.1667,704.9208 112.1667,705.5625 C112.1667,706.2042 111.6417,706.7292 111,706.7292 C110.3583,706.7292 109.8333,706.2042 109.8333,705.5625 C109.8333,704.9208 110.3583,704.3958 111,704.3958" fill="#DAA520"/><text fill="#000000" font-family="Verdana" font-size="14" lengthAdjust="spacing" textLength="4.4502" x="114.3333" y="712.7607">&#160;</text><text fill="#000000" font-family="Verdana" font-size="14" font-weight="bold" lengthAdjust="spacing" textLength="14.8203" x="118.7835" y="712.7607">id</text><text fill="#000000" font-family="Verdana" font-size="14" lengthAdjust="spacing" textLength="58.1328" x="133.6038" y="712.7607">: SERIAL</text><line style="stroke:#000000;stroke-width:1;" x1="98" x2="376.1875" y1="720.0625" y2="720.0625"/><path d="M110.4167,727.526 C108.8067,727.526 107.5,728.8327 107.5,730.4427 C107.5,730.6294 107.5,730.816 107.535,730.991 L104,734.526 L104,736.8594 L107.5,736.8594 L107.5,734.526 L109.8333,734.526 L109.8333,733.3594 L109.8683,733.3244 C110.0433,733.3594 110.23,733.3594 110.4167,733.3594 C112.0267,733.3594 113.3333,732.0527 113.3333,730.4427 C113.3333,728.8327 112.0267,727.526 110.4167,727.526 M111,728.6927 C111.6417,728.6927 112.1667,729.2177 112.1667,729.8594 C112.1667,730.501 111.6417,731.026 111,731.026 C110.3583,731.026 109.8333,730.501 109.8333,729.8594 C109.8333,729.2177 110.3583,728.6927 111,728.6927" fill="#C0C0C0"/><text fill="#000000" font-family="Verdana" font-size="14" lengthAdjust="spacing" textLength="95.0879" x="118.7835" y="737.0576">movie_id: INT</text><path d="M110.4167,743.8229 C108.8067,743.8229 107.5,745.1296 107.5,746.7396 C107.5,746.9263 107.5,747.1129 107.535,747.2879 L104,750.8229 L104,753.1563 L107.5,753.1563 L107.5,750.8229 L109.8333,750.8229 L109.8333,749.6563 L109.8683,749.6212 C110.0433,749.6563 110.23,749.6563 110.4167,749.6563 C112.0267,749.6563 113.3333,748.3496 113.3333,746.7396 C113.3333,745.1296 112.0267,743.8229 110.4167,743.8229 M111,744.9896 C111.6417,744.9896 112.1667,745.5146 112.1667,746.1563 C112.1667,746.7979 111.6417,747.3229 111,747.3229 C110.3583,747.3229 109.8333,746.7979 109.8333,746.1563 C109.8333,745.5146 110.3583,744.9896 111,744.9896" fill="#C0C0C0"/><text fill="#000000" font-family="Verdana" font-size="14" lengthAdjust="spacing" textLength="100.085" x="118.7835" y="753.3545">person_id: INT</text><path d="M110.4167,760.1198 C108.8067,760.1198 107.5,761.4265 107.5,763.0365 C107.5,763.2231 107.5,763.4098 107.535,763.5848 L104,767.1198 L104,769.4531 L107.5,769.4531 L107.5,767.1198 L109.8333,767.1198 L109.8333,765.9531 L109.8683,765.9181 C110.0433,765.9531 110.23,765.9531 110.4167,765.9531 C112.0267,765.9531 113.3333,764.6465 113.3333,763.0365 C113.3333,761.4265 112.0267,760.1198 110.4167,760.1198 M111,761.2865 C111.6417,761.2865 112.1667,761.8115 112.1667,762.4531 C112.1667,763.0948 111.6417,763.6198 111,763.6198 C110.3583,763.6198 109.8333,763.0948 109.8333,762.4531 C109.8333,761.8115 110.3583,761.2865 111,761.2865" fill="#C0C0C0"/><text fill="#000000" font-family="Verdana" font-size="14" lengthAdjust="spacing" textLength="73.4385" x="118.7835" y="769.6514">job_id: INT</text><line style="stroke:#000000;stroke-width:1;" x1="98" x2="376.1875" y1="776.9531" y2="776.9531"/><text fill="#C0C0C0" font-family="Verdana" font-size="14" lengthAdjust="spacing" textLength="8.4014" x="103" y="793.9482">&#9939;</text><text fill="#000000" font-family="Verdana" font-size="14" lengthAdjust="spacing" textLength="255.3359" x="115.8516" y="793.9482">UNIQUE(movie_id, person_id, job_id)</text></g><!--class company--><g class="entity" data-entity="company" data-source-line="12" data-uid="ent0028" id="entity_company"><rect fill="#FFFFFF" height="113.1563" rx="2.5" ry="2.5" style="stroke:#000000;stroke-width:1;" width="279.8177" x="538.5" y="51.5"/><ellipse cx="639.1257" cy="71.6328" fill="#FFA500" rx="9" ry="9" style="stroke:#000000;stroke-width:1;"/><path d="M639.9694,78.3828 L637.5163,78.3828 L637.5163,68.1328 L634.3757,68.1328 L634.3757,65.9922 L643.11,65.9922 L643.11,68.1328 L639.9694,68.1328 L639.9694,78.3828 Z " fill="#000000"/><text fill="#000000" font-family="Verdana" font-size="12" font-style="italic" lengthAdjust="spacing" textLength="45.0762" x="669.6208" y="67.6387">&#171;table&#187;</text><text fill="#000000" font-family="Verdana" font-size="14" font-weight="bold" lengthAdjust="spacing" textLength="71.0664" x="656.6257" y="83.4639">company</text><line style="stroke:#000000;stroke-width:1;" x1="539.5" x2="817.3177" y1="91.7656" y2="91.7656"/><path d="M551.9167,99.2292 C550.3067,99.2292 549,100.5358 549,102.1458 C549,102.3325 549,102.5192 549.035,102.6942 L545.5,106.2292 L545.5,108.5625 L549,108.5625 L549,106.2292 L551.3333,106.2292 L551.3333,105.0625 L551.3683,105.0275 C551.5433,105.0625 551.73,105.0625 551.9167,105.0625 C553.5267,105.0625 554.8333,103.7558 554.8333,102.1458 C554.8333,100.5358 553.5267,99.2292 551.9167,99.2292 M552.5,100.3958 C553.1417,100.3958 553.6667,100.9208 553.6667,101.5625 C553.6667,102.2042 553.1417,102.7292 552.5,102.7292 C551.8583,102.7292 551.3333,102.2042 551.3333,101.5625 C551.3333,100.9208 551.8583,100.3958 552.5,100.3958" fill="#DAA520"/><text fill="#000000" font-family="Verdana" font-size="14" lengthAdjust="spacing" textLength="4.4502" x="555.8333" y="108.7607">&#160;</text><text fill="#000000" font-family="Verdana" font-size="14" font-weight="bold" lengthAdjust="spacing" textLength="14.8203" x="560.2835" y="108.7607">id</text><text fill="#000000" font-family="Verdana" font-size="14" lengthAdjust="spacing" textLength="58.1328" x="575.1038" y="108.7607">: SERIAL</text><line style="stroke:#000000;stroke-width:1;" x1="539.5" x2="817.3177" y1="116.0625" y2="116.0625"/><path d="M550.1667,124.6927 C548.23,124.6927 546.6667,126.256 546.6667,128.1927 C546.6667,130.1294 548.23,131.6927 550.1667,131.6927 C552.1033,131.6927 553.6667,130.1294 553.6667,128.1927 C553.6667,126.256 552.1033,124.6927 550.1667,124.6927" fill="#FFFFFF"/><text fill="#000000" font-family="Verdana" font-size="14" lengthAdjust="spacing" textLength="252.0342" x="560.2835" y="133.0576">name: VARCHAR UNIQUE NOT NULL</text><line style="stroke:#000000;stroke-width:1;" x1="539.5" x2="817.3177" y1="140.3594" y2="140.3594"/><path d="M551.9167,147.8229 C550.3067,147.8229 549,149.1296 549,150.7396 C549,150.9263 549,151.1129 549.035,151.2879 L545.5,154.8229 L545.5,157.1563 L549,157.1563 L549,154.8229 L551.3333,154.8229 L551.3333,153.6563 L551.3683,153.6213 C551.5433,153.6563 551.73,153.6563 551.9167,153.6563 C553.5267,153.6563 554.8333,152.3496 554.8333,150.7396 C554.8333,149.1296 553.5267,147.8229 551.9167,147.8229 M552.5,148.9896 C553.1417,148.9896 553.6667,149.5146 553.6667,150.1563 C553.6667,150.7979 553.1417,151.3229 552.5,151.3229 C551.8583,151.3229 551.3333,150.7979 551.3333,150.1563 C551.3333,149.5146 551.8583,148.9896 552.5,148.9896" fill="#C0C0C0"/><text fill="#000000" font-family="Verdana" font-size="14" lengthAdjust="spacing" textLength="105.6357" x="560.2835" y="157.3545">country_id: INT</text></g><!--link movie to collection--><g class="link" data-entity-1="movie" data-entity-2="collection" data-source-line="76" data-uid="lnk5" id="link_movie_collection"><path codeLine="76" d="M851,929.5 C890.56,929.5 884.44,929 924,929" fill="none" id="movie-collection" style="stroke:#000000;stroke-width:1;"/><line style="stroke:#000000;stroke-width:1;" x1="851" x2="843" y1="929.5" y2="935.5"/><line style="stroke:#000000;stroke-width:1;" x1="851" x2="843" y1="929.5" y2="923.5"/><line style="stroke:#000000;stroke-width:1;" x1="851" x2="843" y1="929.5" y2="929.5"/><line style="stroke:#000000;stroke-width:1;" x1="853" x2="853" y1="933.5" y2="925.5"/><line style="stroke:#000000;stroke-width:1;" x1="928" x2="928" y1="925" y2="933"/><line style="stroke:#000000;stroke-width:1;" x1="925" x2="925" y1="925" y2="933"/><line style="stroke:#000000;stroke-width:1;" x1="924" x2="932" y1="929" y2="929"/></g><!--link movie to movie_genre--><g class="link" data-entity-1="movie" data-entity-2="movie_genre" data-source-line="96" data-uid="lnk8" id="link_movie_movie_genre"><path codeLine="96" d="M851,636.5 C958.44,636.5 845.06,1105.5 952.5,1105.5" fill="none" id="movie-movie_genre" style="stroke:#000000;stroke-width:1;"/><line style="stroke:#000000;stroke-width:1;" x1="847" x2="847" y1="640.5" y2="632.5"/><line style="stroke:#000000;stroke-width:1;" x1="850" x2="850" y1="640.5" y2="632.5"/><line style="stroke:#000000;stroke-width:1;" x1="851" x2="843" y1="636.5" y2="636.5"/><line style="stroke:#000000;stroke-width:1;" x1="952.5" x2="960.5" y1="1105.5" y2="1099.5"/><line style="stroke:#000000;stroke-width:1;" x1="952.5" x2="960.5" y1="1105.5" y2="1111.5"/><line style="stroke:#000000;stroke-width:1;" x1="952.5" x2="960.5" y1="1105.5" y2="1105.5"/><line style="stroke:#000000;stroke-width:1;" x1="950.5" x2="950.5" y1="1101.5" y2="1109.5"/></g><!--link genre to movie_genre--><g class="link" data-entity-1="genre" data-entity-2="movie_genre" data-source-line="97" data-uid="lnk9" id="link_genre_movie_genre"><path codeLine="97" d="M826.5,1168 C892.91,1168 886.09,1121.5 952.5,1121.5" fill="none" id="genre-movie_genre" style="stroke:#000000;stroke-width:1;"/><line style="stroke:#000000;stroke-width:1;" x1="822.5" x2="822.5" y1="1172" y2="1164"/><line style="stroke:#000000;stroke-width:1;" x1="825.5" x2="825.5" y1="1172" y2="1164"/><line style="stroke:#000000;stroke-width:1;" x1="826.5" x2="818.5" y1="1168" y2="1168"/><line style="stroke:#000000;stroke-width:1;" x1="952.5" x2="960.5" y1="1121.5" y2="1115.5"/><line style="stroke:#000000;stroke-width:1;" x1="952.5" x2="960.5" y1="1121.5" y2="1127.5"/><line style="stroke:#000000;stroke-width:1;" x1="952.5" x2="960.5" y1="1121.5" y2="1121.5"/><line style="stroke:#000000;stroke-width:1;" x1="950.5" x2="950.5" y1="1117.5" y2="1125.5"/></g><!--link movie to movie_keyword--><g class="link" data-entity-1="movie" data-entity-2="movie_keyword" data-source-line="113" data-uid="lnk12" id="link_movie_movie_keyword"><path codeLine="113" d="M851,636.5 C907.02,636.5 886.98,571.5 943,571.5" fill="none" id="movie-movie_keyword" style="stroke:#000000;stroke-width:1;"/><line style="stroke:#000000;stroke-width:1;" x1="847" x2="847" y1="640.5" y2="632.5"/><line style="stroke:#000000;stroke-width:1;" x1="850" x2="850" y1="640.5" y2="632.5"/><line style="stroke:#000000;stroke-width:1;" x1="851" x2="843" y1="636.5" y2="636.5"/><line style="stroke:#000000;stroke-width:1;" x1="943" x2="951" y1="571.5" y2="565.5"/><line style="stroke:#000000;stroke-width:1;" x1="943" x2="951" y1="571.5" y2="577.5"/><line style="stroke:#000000;stroke-width:1;" x1="943" x2="951" y1="571.5" y2="571.5"/><line style="stroke:#000000;stroke-width:1;" x1="941" x2="941" y1="567.5" y2="575.5"/></g><!--link keyword to movie_keyword--><g class="link" data-entity-1="keyword" data-entity-2="movie_keyword" data-source-line="114" data-uid="lnk13" id="link_keyword_movie_keyword"><path codeLine="114" d="M826.5,505 C895.87,505 873.63,587.5 943,587.5" fill="none" id="keyword-movie_keyword" style="stroke:#000000;stroke-width:1;"/><line style="stroke:#000000;stroke-width:1;" x1="822.5" x2="822.5" y1="509" y2="501"/><line style="stroke:#000000;stroke-width:1;" x1="825.5" x2="825.5" y1="509" y2="501"/><line style="stroke:#000000;stroke-width:1;" x1="826.5" x2="818.5" y1="505" y2="505"/><line style="stroke:#000000;stroke-width:1;" x1="943" x2="951" y1="587.5" y2="581.5"/><line style="stroke:#000000;stroke-width:1;" x1="943" x2="951" y1="587.5" y2="593.5"/><line style="stroke:#000000;stroke-width:1;" x1="943" x2="951" y1="587.5" y2="587.5"/><line style="stroke:#000000;stroke-width:1;" x1="941" x2="941" y1="583.5" y2="591.5"/></g><!--link person to country--><g class="link" data-entity-1="person" data-entity-2="country" data-source-line="150" data-uid="lnk17" id="link_person_country"><path codeLine="150" d="M851,357 C932.79,357 827.21,188.5 909,188.5" fill="none" id="person-country" style="stroke:#000000;stroke-width:1;"/><line style="stroke:#000000;stroke-width:1;" x1="851" x2="843" y1="357" y2="363"/><line style="stroke:#000000;stroke-width:1;" x1="851" x2="843" y1="357" y2="351"/><line style="stroke:#000000;stroke-width:1;" x1="851" x2="843" y1="357" y2="357"/><line style="stroke:#000000;stroke-width:1;" x1="853" x2="853" y1="361" y2="353"/><line style="stroke:#000000;stroke-width:1;" x1="913" x2="913" y1="184.5" y2="192.5"/><line style="stroke:#000000;stroke-width:1;" x1="910" x2="910" y1="184.5" y2="192.5"/><line style="stroke:#000000;stroke-width:1;" x1="909" x2="917" y1="188.5" y2="188.5"/></g><!--link person to gender--><g class="link" data-entity-1="person" data-entity-2="gender" data-source-line="151" data-uid="lnk18" id="link_person_gender"><path codeLine="151" d="M851,374 C890.56,374 884.44,374 924,374" fill="none" id="person-gender" style="stroke:#000000;stroke-width:1;"/><line style="stroke:#000000;stroke-width:1;" x1="851" x2="843" y1="374" y2="380"/><line style="stroke:#000000;stroke-width:1;" x1="851" x2="843" y1="374" y2="368"/><line style="stroke:#000000;stroke-width:1;" x1="851" x2="843" y1="374" y2="374"/><line style="stroke:#000000;stroke-width:1;" x1="853" x2="853" y1="378" y2="370"/><line style="stroke:#000000;stroke-width:1;" x1="928" x2="928" y1="370" y2="378"/><line style="stroke:#000000;stroke-width:1;" x1="925" x2="925" y1="370" y2="378"/><line style="stroke:#000000;stroke-width:1;" x1="924" x2="932" y1="374" y2="374"/></g><!--link cast_credit to movie--><g class="link" data-entity-1="cast_credit" data-entity-2="movie" data-source-line="173" data-uid="lnk21" id="link_cast_credit_movie"><path codeLine="173" d="M447,542 C500.34,542 451.66,636.5 505,636.5" fill="none" id="cast_credit-movie" style="stroke:#000000;stroke-width:1;"/><line style="stroke:#000000;stroke-width:1;" x1="447" x2="439" y1="542" y2="548"/><line style="stroke:#000000;stroke-width:1;" x1="447" x2="439" y1="542" y2="536"/><line style="stroke:#000000;stroke-width:1;" x1="447" x2="439" y1="542" y2="542"/><line style="stroke:#000000;stroke-width:1;" x1="449" x2="449" y1="546" y2="538"/><line style="stroke:#000000;stroke-width:1;" x1="509" x2="509" y1="632.5" y2="640.5"/><line style="stroke:#000000;stroke-width:1;" x1="506" x2="506" y1="632.5" y2="640.5"/><line style="stroke:#000000;stroke-width:1;" x1="505" x2="513" y1="636.5" y2="636.5"/></g><!--link cast_credit to person--><g class="link" data-entity-1="cast_credit" data-entity-2="person" data-source-line="174" data-uid="lnk22" id="link_cast_credit_person"><path codeLine="174" d="M447,559 C583.9,559 368.1,260 505,260" fill="none" id="cast_credit-person" style="stroke:#000000;stroke-width:1;"/><line style="stroke:#000000;stroke-width:1;" x1="447" x2="439" y1="559" y2="565"/><line style="stroke:#000000;stroke-width:1;" x1="447" x2="439" y1="559" y2="553"/><line style="stroke:#000000;stroke-width:1;" x1="447" x2="439" y1="559" y2="559"/><line style="stroke:#000000;stroke-width:1;" x1="449" x2="449" y1="563" y2="555"/><line style="stroke:#000000;stroke-width:1;" x1="509" x2="509" y1="256" y2="264"/><line style="stroke:#000000;stroke-width:1;" x1="506" x2="506" y1="256" y2="264"/><line style="stroke:#000000;stroke-width:1;" x1="505" x2="513" y1="260" y2="260"/></g><!--link cast_credit to job--><g class="link" data-entity-1="cast_credit" data-entity-2="job" data-source-line="175" data-uid="lnk23" id="link_cast_credit_job"><path codeLine="175" d="M447,575 C551.97,575 424.53,1037 529.5,1037" fill="none" id="cast_credit-job" style="stroke:#000000;stroke-width:1;"/><line style="stroke:#000000;stroke-width:1;" x1="447" x2="439" y1="575" y2="581"/><line style="stroke:#000000;stroke-width:1;" x1="447" x2="439" y1="575" y2="569"/><line style="stroke:#000000;stroke-width:1;" x1="447" x2="439" y1="575" y2="575"/><line style="stroke:#000000;stroke-width:1;" x1="449" x2="449" y1="579" y2="571"/><line style="stroke:#000000;stroke-width:1;" x1="533.5" x2="533.5" y1="1033" y2="1041"/><line style="stroke:#000000;stroke-width:1;" x1="530.5" x2="530.5" y1="1033" y2="1041"/><line style="stroke:#000000;stroke-width:1;" x1="529.5" x2="537.5" y1="1037" y2="1037"/></g><!--link crew_credit to movie--><g class="link" data-entity-1="crew_credit" data-entity-2="movie" data-source-line="187" data-uid="lnk25" id="link_crew_credit_movie"><path codeLine="187" d="M386,731.5 C459.37,731.5 431.63,636.5 505,636.5" fill="none" id="crew_credit-movie" style="stroke:#000000;stroke-width:1;"/><line style="stroke:#000000;stroke-width:1;" x1="386" x2="378" y1="731.5" y2="737.5"/><line style="stroke:#000000;stroke-width:1;" x1="386" x2="378" y1="731.5" y2="725.5"/><line style="stroke:#000000;stroke-width:1;" x1="386" x2="378" y1="731.5" y2="731.5"/><line style="stroke:#000000;stroke-width:1;" x1="388" x2="388" y1="735.5" y2="727.5"/><line style="stroke:#000000;stroke-width:1;" x1="509" x2="509" y1="632.5" y2="640.5"/><line style="stroke:#000000;stroke-width:1;" x1="506" x2="506" y1="632.5" y2="640.5"/><line style="stroke:#000000;stroke-width:1;" x1="505" x2="513" y1="636.5" y2="636.5"/></g><!--link crew_credit to person--><g class="link" data-entity-1="crew_credit" data-entity-2="person" data-source-line="188" data-uid="lnk26" id="link_crew_credit_person"><path codeLine="188" d="M386,747.5 C445.19,747.5 425.33,688.46 446,633 C475.42,554.09 420.78,260 505,260" fill="none" id="crew_credit-person" style="stroke:#000000;stroke-width:1;"/><line style="stroke:#000000;stroke-width:1;" x1="386" x2="378" y1="747.5" y2="753.5"/><line style="stroke:#000000;stroke-width:1;" x1="386" x2="378" y1="747.5" y2="741.5"/><line style="stroke:#000000;stroke-width:1;" x1="386" x2="378" y1="747.5" y2="747.5"/><line style="stroke:#000000;stroke-width:1;" x1="388" x2="388" y1="751.5" y2="743.5"/><line style="stroke:#000000;stroke-width:1;" x1="509" x2="509" y1="256" y2="264"/><line style="stroke:#000000;stroke-width:1;" x1="506" x2="506" y1="256" y2="264"/><line style="stroke:#000000;stroke-width:1;" x1="505" x2="513" y1="260" y2="260"/></g><!--link crew_credit to job--><g class="link" data-entity-1="crew_credit" data-entity-2="job" data-source-line="189" data-uid="lnk27" id="link_crew_credit_job"><path codeLine="189" d="M386,764.5 C526.33,764.5 389.17,1037 529.5,1037" fill="none" id="crew_credit-job" style="stroke:#000000;stroke-width:1;"/><line style="stroke:#000000;stroke-width:1;" x1="386" x2="378" y1="764.5" y2="770.5"/><line style="stroke:#000000;stroke-width:1;" x1="386" x2="378" y1="764.5" y2="758.5"/><line style="stroke:#000000;stroke-width:1;" x1="386" x2="378" y1="764.5" y2="764.5"/><line style="stroke:#000000;stroke-width:1;" x1="388" x2="388" y1="768.5" y2="760.5"/><line style="stroke:#000000;stroke-width:1;" x1="533.5" x2="533.5" y1="1033" y2="1041"/><line style="stroke:#000000;stroke-width:1;" x1="530.5" x2="530.5" y1="1033" y2="1041"/><line style="stroke:#000000;stroke-width:1;" x1="529.5" x2="537.5" y1="1037" y2="1037"/></g><!--link company to country--><g class="link" data-entity-1="company" data-entity-2="country" data-source-line="201" data-uid="lnk29" id="link_company_country"><path codeLine="201" d="M826.5,151.5 C873.26,151.5 862.24,188.5 909,188.5" fill="none" id="company-country" style="stroke:#000000;stroke-width:1;"/><line style="stroke:#000000;stroke-width:1;" x1="826.5" x2="818.5" y1="151.5" y2="157.5"/><line style="stroke:#000000;stroke-width:1;" x1="826.5" x2="818.5" y1="151.5" y2="145.5"/><line style="stroke:#000000;stroke-width:1;" x1="826.5" x2="818.5" y1="151.5" y2="151.5"/><line style="stroke:#000000;stroke-width:1;" x1="828.5" x2="828.5" y1="155.5" y2="147.5"/><line style="stroke:#000000;stroke-width:1;" x1="913" x2="913" y1="184.5" y2="192.5"/><line style="stroke:#000000;stroke-width:1;" x1="910" x2="910" y1="184.5" y2="192.5"/><line style="stroke:#000000;stroke-width:1;" x1="909" x2="917" y1="188.5" y2="188.5"/></g><!--SRC=[lLXHSzis37wsVWMQxPRufYnhUzS7N-QU5pkjDoVf4ZlRcu-MQ8kD9AeYvPpNzByF94M9KX9xQNDzYWc27q3W8m3bXOneGY6B2KkzY8KKQ9B93IHKHZmKdXVJfGJ98MUhI4B8SXf8nbFFyrvaEGzeMEGKVXG1mf237rEIK1-NSR7gUXa9RiYAmfuMxm4HPWUEZoyHXQIhcFRxtWkQXXLK4rQIHKnRg3IL31tSErxqzSRnqQBVm8Q3gGyNESBJBcW4s6vbpUZjqurS-p3uL924v2n5GmfaXvtinbZfUiS1ZtdU- -4TZqEQNlAmV_pJ3TtqZu_qHXzSkziWb_SWhrYyfdaRJojj0qAz8aajsESbet7u1Ipetn6J534J6Z9oY1JWUVWay5J871ac7pDWlPxz_EhDyFKEQC_IRU-CyyDh61BCCX4KhhHupuU4y_bw7Ywwy1dLzs58bvWa0GGGDpOC1hv4FKoRy4gUrNk-ewSmEYftBEpsu6fqEHvClCxX8GhBeEahzU1wS7doVd09i_FnNxCHd5zCuNmscNXVMYveezQcNlX6jjiIaZ9sJLaRdKxdQ1_E50Xe7M0fZF1zCH7j7zNdILZ44i__Vd4n6GtEOJWw7SmcKpWTJAv66cCi02k2yGUq-c5E90tVWel3CLcAy8uhdOvnuYhYkIpFXrG4ESjK51ywFLzZX7ckG4OdqmkDWGZNMih-fM49O_LT34dmSYbzm84o2cRVFR8emXNLjn-_6vzFuUJzwEJFKWfz-BLRdow56CJPrT35oEcQfWLjWvHYZGA8CkMInANtTky1i0AhZAQEWsHabJ_30iDVihLE368bB2qaygdfNKpn7Sn3p1YY3WVJ4JIYKYg0KcYSZ7X2CwpLTJnjE6UNa-gbW5LhdCsua3IV5tdSF5qVhXqtki0I2u9AvqMoG1dg5GB_hddxMaeo3pX6fX6gMWpztp1S6co0N57O5LG3YQnNSoL4dDF9nS0YMR63yu5dHOob7Pk0m6f7Vu7JyJzdenum0KnY84aSRz2ARY-2fG5LuY1INKTeneBAuzjMf2neou5wmt71l0CqbULKO4Dgy40K2NQUZLtgwoBJy9K8hzDvHv4U32AYwiqofnG67yP0qX3FPHa-K04B8eC8Ztmgg91j6ccSETgetgRpyf9mCTSLIgMYLUoKtrFqnz2jAim7qxCX5cCSBv3TMFfpRKzLDjG_nV2oLGhOiDIWuLJecZSB6lDqXRM9-y2MU9EDTXZRNwskdC9Ygm_qUWqvVBaxFBoxSx1xFHQwPLa7qDZ2eYc5siAg9O44ij2vbX5BRrIIRp5-aMO1UYimHLJj2KWA32Zc0nyNmUDbWLTeliR4yewjODzQND4Kywem5bXfXS0GOCN3PRCfQJNVQ3z7Azg7Fugq3AycxuBAMqhJqgmcYN6jqQBcfH_EmdY3AJ0o5Nszr9jcMRfMTVyzur1rehoNKjxJvMwMCYGar4TKGCYQOmh38ejPGChYKEKPT-vKSZ-xhlLwre9NhXzHi-PTAY0FCSNXxjIKYhuzyRtIOnri9gZofh5yB4dbzlzDawF-N8ag8PrKLP97LMitxerrs0RoJJt9wQLlvT-ScKgF2Jv__VBDc_bBr5Qg1w-wEoS-P5b8S-T5uyelfSy-NcOq5yWUZDCDIrV0A-hW11qMXbe7HBKMl_oSKxzkiVaefwWCkWXtbT60BJUw0YlxkjH5_1O51ESYkQ-3JeG4x511Zfy-2TLTNF4pvH8-5hX782eIajgB6y_yqiCdNzpU67JJAEBOU5PsmFBQZO6FOQ5sXo4pb0pLy8Edz7QpF-TyoMBaeXfFMWDDSvefDPk3J7jc-DhUhsE0RzJuNrAuQhdc4lUQfbPgNSiKOoHPtQ_hBuRx84QtQiqFLGJpaUm4zidLmEIfrsjVhcxHMgBxizMjBc6LZC3qy0RvXUOj2-0ZNrZQuKzVhP-dF3irHz4VkHyo_QNG-h1JktEpwuEpsEq53f4vla-ySDCVFIixZA_qr7zlDjYWgiIvvLwdtSXCE5j238mZsTq9AX0TK_stvV2JAU54f-u6DjLLzsYgLMvOFSkLjg9nqchXgZtvxKmaLhSwaVLYIoA_Q_o_8jxr9RR6srNR6czNyP5uDrjKtOa2dcGupTUDMozzA__sncqJya0PtLv7USvMB3KHyqftr6V5beBr7m00]--></g></svg>